<svg id="Capa_1" enable-background="new 0 0 552.47 552.47" height="512" viewBox="0 0 552.47 552.47" width="512" xmlns="http://www.w3.org/2000/svg"><path d="m379.823 103.588c-19.526 0-38.605 4.158-56.951 11.903-9.3-4.919-19.1-8.415-29.372-10.238v-18.93c0-47.596-38.728-86.323-86.324-86.323v34.529c28.561 0 51.794 23.233 51.794 51.794v18.93c-10.272 1.823-20.072 5.321-29.372 10.238-18.346-7.745-37.425-11.903-56.951-11.903-100.031 0-172.647 94.383-172.647 224.441s72.616 224.441 172.647 224.441c19.526 0 38.605-4.158 56.951-11.903 14.407 7.619 30.011 11.903 46.637 11.903s32.23-4.282 46.637-11.903c18.346 7.745 37.425 11.903 56.951 11.903 100.031 0 172.647-94.383 172.647-224.441s-72.616-224.441-172.647-224.441zm-345.294 224.441c0-110.046 58.083-189.912 138.118-189.912 8.141 0 16.19 1.077 24.144 2.873-36.209 39.174-58.673 106.193-58.673 187.039s22.464 147.865 58.673 187.039c-7.954 1.796-16.002 2.873-24.144 2.873-80.035 0-138.118-79.866-138.118-189.912zm138.118 0c0-108.275 44.527-189.912 103.588-189.912s103.588 81.636 103.588 189.912-44.527 189.912-103.588 189.912-103.588-81.636-103.588-189.912zm207.176 189.912c-8.141 0-16.19-1.077-24.144-2.873 36.209-39.174 58.673-106.193 58.673-187.039s-22.463-147.865-58.672-187.039c7.954-1.796 16.002-2.873 24.144-2.873 80.035 0 138.118 79.866 138.118 189.912s-58.084 189.912-138.119 189.912z"/></svg>