<svg id="Capa_1" enable-background="new 0 0 510.765 510.765" height="512" viewBox="0 0 510.765 510.765" width="512" xmlns="http://www.w3.org/2000/svg"><path d="m335.361 142.744h-98.017c-13.042 0-25.585 5.012-35.035 13.999l-195.092 185.494 9.628 130.708h44.753c15.544 0 30.382-6.491 40.933-17.906l9.596-10.382c6.535-7.07 14.789-12.327 23.96-15.259l97.453-34.876c41.727 12.245 83.013 12.52 123.826 0 11.665 39.312 13.758 61.61 13.758 116.242h132.424v-249.972l-100.275-96.161c-20.11-17.313-43.541-21.887-67.912-21.887zm-250.787 234.213c-14 7.415-27.706 7.92-29.222 7.953l-.655-29.993-.116.003c.086-.003 8.686-.379 16.667-4.865 9.439-5.305 13.835-13.849 13.835-26.888h30c0 24.267-10.835 43.369-30.509 53.79zm148.982-122.015-14.479-26.275 25.795-14.213-25.372-12.946 13.634-26.723 75.752 38.648z"/><path d="m237.344 111.787h1.878c-6.258-14.232-11.039-30.314-14.307-48.155h-34.047l19.613 52.668c8.542-2.965 17.6-4.513 26.863-4.513z"/><path d="m426.56 78.595c-18.704-14.209-41.289-22.306-64.684-23.257 6.854 16.727 11.619 36.802 12.753 60.812 1.653.409 3.287.845 4.9 1.312 16.402 4.752 31.186 12.729 43.941 23.709l.63.542.6.575 78.849 75.614v-79.12z"/><path d="m343.362 111.787c-7.896-101.298-92.796-111.787-92.796-111.787 0 60.336 13.071 94.386 23.29 111.787z"/></svg>