<svg height="444pt" viewBox="0 0 444 444.45171" width="444pt" xmlns="http://www.w3.org/2000/svg"><path d="m168.226562 144c0 13.253906-10.746093 24-24 24-13.253906 0-24-10.746094-24-24s10.746094-24 24-24c13.253907 0 24 10.746094 24 24zm0 0"/><path d="m144.226562 0c-79.492187.09375-143.90625 64.507812-144 144 0 4 .277344 7.855469.589844 11.742188 6.28125-69.722657 61.574219-124.953126 131.304688-131.15625 1.601562-.21875 3.65625-.320313 5.730468-.410157 4.664063-.199219 8.390626-.183593 12.445313 0 2.402344.097657 4.433594.199219 6.402344.464844 46.59375 4.871094 86.09375 36.417969 101.152343 80.785156 15.054688 44.363281 2.914063 93.433594-31.089843 125.664063l-.136719.109375c-28.335938 26.757812-67.902344 38.09375-106.109375 30.402343-38.0625-8.453124-68.082031-37.679687-77.554687-75.496093-1.660157-5.898438-2.582032-11.980469-2.734376-18.105469-.054687-55.371094 43.339844-101.046875 98.640626-103.832031 3.941406-.175781 7.023437-.167969 10.480468 0 43.070313 2.796875 76.15625 39.253906 74.777344 82.394531-1.382812 43.136719-36.738281 77.40625-79.898438 77.4375-9.523437.015625-18.96875-1.683594-27.890624-5.015625-21.101563-7.722656-35.394532-27.492187-36.109376-49.953125v-1.03125c.023438-33.777344 26.289063-61.722656 60-63.832031 1.328126-.140625 2.664063-.195313 4-.167969 22.089844 0 40 17.910156 40 40s-17.910156 40-40 40c-22.09375 0-40-17.910156-40-40 0-.96875.214844-1.871094.289063-2.816406-5.402344 7.898437-8.292969 17.246094-8.289063 26.816406v.800781c.589844 15.875 10.757813 29.804688 25.703126 35.199219 21.863281 7.902344 46.285156 3.488281 64-11.566406 19.683593-16.910156 27.195312-44.035156 19.015624-68.660156-8.179687-24.625-30.433593-41.863282-56.320312-43.628907-3.03125-.144531-5.839844-.144531-8.800781 0-46.839844 2.296875-83.628907 40.957031-83.597657 87.855469.152344 4.769531.894532 9.5 2.207032 14.089844 7.894531 31.921875 33.148437 56.644531 65.230468 63.863281 32.988282 6.648437 67.152344-3.074219 91.699219-26.097656.191407-.199219.390625-.390625.605469-.582031 29.386719-28 39.800781-70.535157 26.671875-108.941407-13.132813-38.40625-47.40625-65.664062-87.78125-69.8125-1.769531-.230469-3.371094-.289062-4.96875-.359375-4.097656-.160156-7.472656-.152344-11.089844 0-1.839843.078125-3.4375.136719-4.976562.34375-66.261719 5.714844-117.246094 60.988282-117.597657 127.496094-.082031 28.519531 9.488282 56.226562 27.152344 78.617188 46.359375 45.566406 117.511719 54.410156 173.617188 21.574218 56.101562-32.832031 83.242187-99.195312 66.21875-161.933594-17.023438-62.738281-73.980469-106.2851558-138.988282-106.257812zm0 0"/><path d="m350.394531 304.910156 69.527344-28.621094-39.574219-10.792968c-2.726562-.746094-4.855468-2.875-5.601562-5.601563l-10.792969-39.574219-28.625 69.535157 1.890625 1.886719zm0 0"/><path d="m308.921875 297.367188-46.214844-46.214844c-3.597656 3.960937-7.371093 7.738281-11.328125 11.328125l46.214844 46.214843zm0 0"/><path d="m354.625 320.472656 13.839844 13.847656 37.527344 10.054688-1.597657-2.832031c-2.210937-3.824219-.902343-8.714844 2.917969-10.925781l2.867188-1.664063-46.128907-12.34375zm0 0"/><path d="m331.539062 342.625 11.3125-11.3125 101.820313 101.824219-11.3125 11.316406zm0 0"/><path d="m320.699219 354.398438-3.875 9.410156 12.363281 46.121094 1.644531-2.859376c2.210938-3.824218 7.105469-5.136718 10.929688-2.925781l2.839843 1.648438-10.054687-37.527344zm0 0"/><path d="m290.058594 335.089844-69.527344 28.621094 39.574219 10.792968c2.726562.746094 4.851562 2.875 5.601562 5.601563l10.789063 39.574219 28.625-69.535157-1.886719-1.886719zm0 0"/><path d="m303.257812 325.65625 22.628907-22.625 11.3125 11.3125-22.628907 22.625zm0 0"/></svg>