<svg id="Layer_5" enable-background="new 0 0 64 64" height="512" viewBox="0 0 64 64" width="512" xmlns="http://www.w3.org/2000/svg"><path d="m12.039 38.576-1.812.848c2.721 5.817 8.629 9.576 15.052 9.576h.721v-2h-.721c-5.65 0-10.847-3.307-13.24-8.424z"/><path d="m49 44c0-1.654-1.346-3-3-3s-3 1.346-3 3 1.346 3 3 3 3-1.346 3-3zm-3 1c-.551 0-1-.449-1-1s.449-1 1-1 1 .449 1 1-.449 1-1 1z"/><path d="m53 46c-1.654 0-3 1.346-3 3s1.346 3 3 3v-2c-.551 0-1-.449-1-1s.449-1 1-1 1 .449 1 1h2c0-1.654-1.346-3-3-3z"/><path d="m42 48c-1.654 0-3 1.346-3 3h2c0-.551.449-1 1-1s1 .449 1 1-.449 1-1 1v2c1.654 0 3-1.346 3-3s-1.346-3-3-3z"/><path d="m50 57c-.551 0-1-.449-1-1s.449-1 1-1v-2c-1.654 0-3 1.346-3 3s1.346 3 3 3 3-1.346 3-3h-2c0 .551-.449 1-1 1z"/><path d="m28 11c1.654 0 3-1.346 3-3s-1.346-3-3-3-3 1.346-3 3 1.346 3 3 3zm0-4c.551 0 1 .449 1 1s-.449 1-1 1-1-.449-1-1 .449-1 1-1z"/><path d="m34 15v-2c-.551 0-1-.449-1-1s.449-1 1-1v-2c-1.654 0-3 1.346-3 3s1.346 3 3 3z"/><path d="m45 19c1.654 0 3-1.346 3-3s-1.346-3-3-3-3 1.346-3 3 1.346 3 3 3zm0-4c.551 0 1 .449 1 1s-.449 1-1 1-1-.449-1-1 .449-1 1-1z"/><path d="m16 19c1.654 0 3-1.346 3-3s-1.346-3-3-3-3 1.346-3 3 1.346 3 3 3zm0-4c.551 0 1 .449 1 1s-.449 1-1 1-1-.449-1-1 .449-1 1-1z"/><path d="m11 27c1.654 0 3-1.346 3-3s-1.346-3-3-3-3 1.346-3 3 1.346 3 3 3zm0-4c.551 0 1 .449 1 1s-.449 1-1 1-1-.449-1-1 .449-1 1-1z"/><path d="m32 26c0-1.654-1.346-3-3-3s-3 1.346-3 3 1.346 3 3 3 3-1.346 3-3zm-3 1c-.551 0-1-.449-1-1s.449-1 1-1 1 .449 1 1-.449 1-1 1z"/><path d="m40 23c0-.551.449-1 1-1s1 .449 1 1-.449 1-1 1v2c1.654 0 3-1.346 3-3s-1.346-3-3-3-3 1.346-3 3z"/><path d="m53 27v-2c-.551 0-1-.449-1-1s.449-1 1-1 1 .449 1 1h2c0-1.654-1.346-3-3-3s-3 1.346-3 3 1.346 3 3 3z"/><path d="m28 47h2v2h-2z"/><path d="m62.23 44.315-1.062.449c-.37.157-.763.236-1.168.236-1.364 0-2.554-.93-2.894-2.261l-.179-.701c.842-1.587 1.457-3.276 1.862-5.038h.211c2.206 0 4-1.794 4-4 0-1.995-1.473-3.64-3.386-3.938.906-1.883 1.386-3.948 1.386-6.062 0-7.72-6.28-14-14-14-2.784 0-5.375.826-7.558 2.233-.277-.348-.442-.776-.442-1.233 0-.531.207-1.032.583-1.41l.571-.575-.444-.678c-2.602-3.968-6.98-6.337-11.71-6.337-5.484 0-10.403 3.17-12.695 8.113-6.922.84-12.305 6.742-12.305 13.887 0 2.115.48 4.18 1.386 6.062-1.913.298-3.386 1.943-3.386 3.938 0 2.206 1.794 4 4 4h.208c2.14 9.316 10.439 16 20.071 16h10.311c1.726 5.775 7.081 10 13.41 10 7.72 0 14-6.28 14-14 0-1.17-.16-2.371-.476-3.569zm-7.464-2.53c-1.599-.523-2.766-2.013-2.766-3.785 0-.329.062-.664.154-1h4.582c-.43 1.686-1.091 3.287-1.97 4.785zm4.234-18.785c0 2.12-.561 4.181-1.614 6h-20.773c-1.053-1.82-1.613-3.88-1.613-6 0-6.617 5.383-12 12-12s12 5.383 12 12zm-28-2c.717 0 1.426.086 2.127.212-.075.587-.127 1.181-.127 1.788 0 2.091.469 4.134 1.355 6h-5.355-9.311c1.673-4.766 6.152-8 11.311-8zm-3-18c3.815 0 7.364 1.799 9.627 4.848-.408.637-.627 1.378-.627 2.152 0 .898.305 1.748.839 2.438-2.046 1.778-3.568 4.134-4.315 6.817-.832-.152-1.673-.255-2.524-.255-.196 0-.389.017-.583.025-1.691-5.751-6.803-9.749-12.82-9.999 2.122-3.701 6.055-6.026 10.403-6.026zm-11 8c5.258 0 9.801 3.34 11.401 8.246-5.114.952-9.303 4.67-10.81 9.754h-10.977c-1.054-1.819-1.614-3.88-1.614-6 0-6.617 5.383-12 12-12zm-14 22c0-1.103.897-2 2-2h54c1.103 0 2 .897 2 2s-.897 2-2 2h-54c-1.103 0-2-.897-2-2zm22.279 18c-8.543 0-15.928-5.822-18.019-14h34.566c-4.081 2.449-6.826 6.904-6.826 12 0 .681.065 1.345.16 2zm23.721 10c-6.617 0-12-5.383-12-12s5.383-12 12-12c.355 0 .714.018 1.08.053-.053.316-.08.632-.08.947 0 3.112 2.382 5.679 5.418 5.972.777 1.816 2.565 3.028 4.582 3.028.274 0 .544-.022.811-.065.126.697.189 1.388.189 2.065 0 6.617-5.383 12-12 12z"/><path d="m55 52h2v2h-2z"/><path d="m51 16h2v2h-2z"/><path d="m46 24h2v2h-2z"/><path d="m22 16h2v2h-2z"/></svg>