<svg id="Layer_1" height="512" viewBox="0 0 128 128" width="512" xmlns="http://www.w3.org/2000/svg" data-name="Layer 1"><path d="m115.794 38.473-3.219-3.682 3.219-3.681a1.749 1.749 0 0 0 0-2.3l-3.22-3.682 3.22-3.682a1.75 1.75 0 0 0 -1.735-2.851l-22.564 5.549a5.621 5.621 0 0 0 -5.612-5.519h-43.766a5.621 5.621 0 0 0 -5.612 5.519l-22.564-5.552a1.75 1.75 0 0 0 -1.735 2.851l3.22 3.682-3.22 3.682a1.749 1.749 0 0 0 0 2.3l3.219 3.681-3.219 3.682a1.749 1.749 0 0 0 0 2.3l3.219 3.682-3.219 3.688a1.749 1.749 0 0 0 0 2.3l3.22 3.682-3.22 3.682a1.75 1.75 0 0 0 1.735 2.851l22.564-5.551a5.621 5.621 0 0 0 5.612 5.519h43.766a5.621 5.621 0 0 0 5.612-5.519l22.564 5.551a1.75 1.75 0 0 0 1.735-2.851l-3.22-3.682 3.22-3.682a1.749 1.749 0 0 0 0-2.3l-3.219-3.681 3.219-3.682a1.749 1.749 0 0 0 0-2.304zm-73.677-16.348h7.906c3.074 5.058 7.86 8.658 14.288 10.67 12.951 4.054 19.989 12.874 19.573 24.33h-11.319c-.746-6.5-5.833-11.765-15.178-15.648-7.763-3.227-13.597-7.222-17.387-11.871v-5.363a2.12 2.12 0 0 1 2.117-2.118zm-23.05 30.848-3.219-3.682 3.219-3.681a1.749 1.749 0 0 0 0-2.3l-3.22-3.682 2.7-3.083h10.078a1.75 1.75 0 0 0 0-3.5h-10.081l-2.7-3.083 3.219-3.682a1.749 1.749 0 0 0 0-2.3l-.574-.657 18.011 4.424v14.878h-9.125a1.75 1.75 0 0 0 0 3.5h9.125v5.375l-18.007 4.43.574-.657a1.749 1.749 0 0 0 0-2.3zm20.933 2.034v-20.26a51.615 51.615 0 0 0 16.044 9.961c7.839 3.257 12.189 7.429 12.985 12.416h-26.912a2.12 2.12 0 0 1 -2.117-2.117zm48 0a2.105 2.105 0 0 1 -.583 1.45c.113-12.605-7.97-22.592-22.062-27a21.928 21.928 0 0 1 -11.092-7.33h31.62a2.12 2.12 0 0 1 2.117 2.116zm21.529-12.382h-10.154a1.75 1.75 0 0 0 0 3.5h10.008l2.769 3.167-3.219 3.682a1.749 1.749 0 0 0 0 2.3l.574.657-18.007-4.431v-14.958h9.125a1.75 1.75 0 0 0 0-3.5h-9.125v-5.295l18.007-4.43-.574.657a1.749 1.749 0 0 0 0 2.3l3.219 3.682-3.219 3.681a1.749 1.749 0 0 0 0 2.3l3.22 3.682z"/><path d="m115.794 77.557-3.22-3.682 3.22-3.682a1.75 1.75 0 0 0 -1.64-2.872l-31.23 5.85a32.314 32.314 0 0 0 -18.924-5.796 34.377 34.377 0 0 0 -12.152 2.172 1.733 1.733 0 0 0 -.322.126 28.821 28.821 0 0 0 -6.45 3.5l-31.23-5.85a1.75 1.75 0 0 0 -1.64 2.872l3.22 3.682-3.22 3.682a1.749 1.749 0 0 0 0 2.3l3.219 3.681-3.219 3.682a1.749 1.749 0 0 0 0 2.3l3.219 3.682-3.219 3.686a1.749 1.749 0 0 0 0 2.3l3.22 3.682-3.22 3.682a1.75 1.75 0 0 0 1.64 2.872l31.139-5.826a32.278 32.278 0 0 0 19.015 5.858 35.371 35.371 0 0 0 7.254-.748c.039-.008.078-.015.115-.025a30.425 30.425 0 0 0 11.646-5.085l31.139 5.833a1.75 1.75 0 0 0 1.64-2.872l-3.22-3.682 3.22-3.682a1.749 1.749 0 0 0 0-2.3l-3.219-3.681 3.219-3.682a1.749 1.749 0 0 0 0-2.3l-3.219-3.682 3.219-3.681a1.749 1.749 0 0 0 0-2.314zm-27.794 10.86a13.639 13.639 0 0 1 -2.213 7.345c-3.019-8.17-10.147-14.338-20.432-17.557a22.571 22.571 0 0 1 -10.073-6.127 31.737 31.737 0 0 1 8.718-1.203c13.233 0 24 7.869 24 17.542zm-36.25-15.077a25.507 25.507 0 0 0 12.561 8.2c10.19 3.19 16.67 9.216 18.822 17.447a24.943 24.943 0 0 1 -10.733 5.861c-1.153-6.04-6.181-10.954-15.008-14.622a47.97 47.97 0 0 1 -15.056-9.346 21.238 21.238 0 0 1 9.414-7.54zm-32.683 28.383-3.219-3.682 3.219-3.681a1.749 1.749 0 0 0 0-2.3l-3.22-3.682 2.7-3.083h10.078a1.75 1.75 0 0 0 0-3.5h-10.081l-2.7-3.083 3.219-3.682a1.749 1.749 0 0 0 0-2.3l-.9-1.032 23.557 4.402a20.455 20.455 0 0 0 -3.012 4.057 1.728 1.728 0 0 0 -.2.374 16.735 16.735 0 0 0 -2.008 7.886 16.259 16.259 0 0 0 .277 2.958h-9.4a1.75 1.75 0 0 0 0 3.5h10.454a19.686 19.686 0 0 0 3.824 5.783l-23.489 4.4.9-1.032a1.749 1.749 0 0 0 .001-2.303zm27.327-1.4c-.013-.009-.025-.02-.038-.029-3.942-3.128-6.356-7.3-6.356-11.877a13.091 13.091 0 0 1 .714-4.244 52.873 52.873 0 0 0 15.33 9.286c7.677 3.19 12.008 7.263 12.925 12.119a32.541 32.541 0 0 1 -4.969.38 28.6 28.6 0 0 1 -17.605-5.636zm63.134-8.947h-10.153a1.75 1.75 0 0 0 0 3.5h10.008l2.769 3.167-3.219 3.682a1.749 1.749 0 0 0 0 2.3l.9 1.032-23.463-4.4a1.749 1.749 0 0 0 .167-.213 17.779 17.779 0 0 0 4.963-12.027 16.269 16.269 0 0 0 -.3-3.125h9.43a1.75 1.75 0 0 0 0-3.5h-10.53a19.776 19.776 0 0 0 -3.82-5.692l23.555-4.413-.9 1.032a1.749 1.749 0 0 0 0 2.3l3.219 3.682-3.219 3.681a1.749 1.749 0 0 0 0 2.3l3.22 3.682z"/></svg>