<svg id="Capa_1" enable-background="new 0 0 512 512" height="512" viewBox="0 0 512 512" width="512" xmlns="http://www.w3.org/2000/svg"><path d="m256 0c-107.265 0-194.532 87.267-194.532 194.532v317.468h15.053c19.542 0 29.946-6.984 38.306-12.596 6.715-4.508 11.152-7.486 21.526-7.486 10.375 0 14.811 2.978 21.527 7.487 8.36 5.612 18.764 12.596 38.306 12.596 19.541 0 29.944-6.985 38.303-12.597 6.714-4.508 11.149-7.486 21.521-7.486s14.807 2.978 21.522 7.486c8.36 5.612 18.763 12.596 38.304 12.596 19.54 0 29.943-6.984 38.302-12.597 6.714-4.508 11.149-7.486 21.521-7.486 10.371 0 14.806 2.978 21.52 7.486 8.359 5.612 18.762 12.597 38.302 12.597h15.053v-317.468c-.002-107.265-87.269-194.532-194.534-194.532zm164.425 478.464c-2.109-1.131-4.152-2.503-6.466-4.056-8.359-5.612-18.762-12.597-38.302-12.597-19.541 0-29.944 6.985-38.303 12.597-6.713 4.508-11.149 7.486-21.52 7.486-10.372 0-14.807-2.978-21.522-7.486-8.36-5.612-18.763-12.596-38.304-12.596-19.54 0-29.943 6.985-38.303 12.597-6.714 4.508-11.15 7.486-21.521 7.486-10.374 0-14.81-2.978-21.526-7.486-8.36-5.612-18.764-12.596-38.307-12.596-19.542 0-29.946 6.984-38.306 12.596-2.316 1.555-4.361 2.927-6.472 4.059v-283.936c0-90.664 73.761-164.425 164.425-164.425s164.425 73.761 164.425 164.425v283.932z"/><path d="m186.001 241.204c.477.024.957.037 1.44.037s.963-.012 1.44-.037c33.755-.771 60.982-28.449 60.982-62.386 0-34.42-28.003-62.423-62.423-62.423s-62.423 28.003-62.423 62.423c.002 33.937 27.229 61.616 60.984 62.386zm1.44-94.702c17.819 0 32.316 14.497 32.316 32.316 0 7.99-2.921 15.307-7.744 20.954-4.768-8.676-13.993-14.57-24.572-14.57s-19.805 5.894-24.572 14.57c-4.822-5.647-7.744-12.963-7.744-20.954 0-17.819 14.497-32.316 32.316-32.316z"/><path d="m337.414 302.835-40.714-32.114-40.706 32.114-40.709-32.115-40.706 32.114-31.382-24.758-18.648 23.637 50.03 39.469 40.706-32.114 40.709 32.114 40.708-32.114 40.712 32.113 50.036-39.467-18.646-23.639z"/><path d="m324.559 116.395c-34.42 0-62.423 28.003-62.423 62.423 0 33.937 27.227 61.615 60.982 62.386.477.024.957.037 1.44.037s.963-.012 1.44-.037c33.755-.771 60.982-28.449 60.982-62.386.001-34.42-28.001-62.423-62.421-62.423zm24.572 83.377c-4.768-8.676-13.993-14.57-24.572-14.57s-19.805 5.894-24.572 14.57c-4.822-5.647-7.744-12.963-7.744-20.954 0-17.819 14.497-32.316 32.316-32.316s32.316 14.497 32.316 32.316c0 7.99-2.922 15.307-7.744 20.954z"/></svg>