<svg id="Capa_1" enable-background="new 0 0 511.75 511.75" height="512" viewBox="0 0 511.75 511.75" width="512" xmlns="http://www.w3.org/2000/svg"><path d="m399.865 0-83.96 162.245h36.539l55.238-106.743 60.767 64.27 23.58-22.295z"/><path d="m79.417 162.245h92.624c-7.452-34.745-38.326-60.798-75.297-60.798-42.539 0-77.024 34.485-77.024 77.024 0 38.716 28.568 70.75 65.772 76.197z"/><path d="m310.406 281.24 26.109 8.547 6.25-95.09h-7.114l-42.913 82.143c5.979 1.058 11.89 2.508 17.668 4.4z"/><path d="m156.529 284.937c19.731 6.458 41.463 6.459 61.194 0l11.296-3.698c9.035-2.958 18.388-4.872 27.836-5.793l42.257-80.75h-185.04l5.128 78.021z"/><path d="m193.76 15.513c-25.428 25.428-36.117 49.34-38.484 70.484 12.109 7.692 22.613 17.693 30.885 29.383 4.271-10.901 10.496-22.029 19.545-32.173 6.301-7.064 13.485-13.147 21.528-18.241-5.673-15.517-16.155-32.134-33.474-49.453z"/><path d="m300.309 312.08c-19.731-6.46-41.463-6.46-61.194 0l-11.296 3.698c-26.242 8.592-55.145 8.591-81.387 0l-24.938-8.164 13.418 204.136h187.013l12.392-188.536zm-82.968 115.043h-33.764v-33.764h33.764zm49.521 33.764h-33.764v-33.764h33.764z"/><path d="m269.556 162.245c22.457-15.058 41.659-42.989 41.659-94.53-93.66 0-109.398 63.391-111.481 94.53z"/></svg>