<svg id="Layer_1" enable-background="new 0 0 512 512" height="512" viewBox="0 0 512 512" width="512" xmlns="http://www.w3.org/2000/svg"><path d="m295.782 57.74-12.942-12.94-77.4 51.6h-107.93c-8.28 0-15 6.72-15 15v96.4c0 8.28 6.72 15 15 15h107.93l77.397 51.598 12.946-12.946c27.208-27.208 42.192-63.38 42.192-101.852 0-38.477-14.985-74.652-42.193-101.86z"/><path d="m365.26 4.47c-2.9-2.95-6.77-4.47-10.68-4.47-2.88 0-5.78.82-8.32 2.52l-37.965 25.308 8.699 8.698c32.876 32.875 50.98 76.583 50.98 123.074 0 46.486-18.104 90.191-50.979 123.065l-8.703 8.703 37.968 25.312c2.54 1.7 5.44 2.52 8.32 2.52 3.91 0 7.78-1.52 10.68-4.47 41.42-41.44 64.23-96.54 64.23-155.13s-22.81-113.69-64.23-155.13z"/><path d="m208.914 58.028v-10.895c0-8.284-6.716-15-15-15h-64.267c-8.284 0-15 6.716-15 15v19.267h81.709z"/><path d="m114.647 252.8v34.267h94.267v-25.895l-12.558-8.372z"/><path d="m114.647 497c0 8.284 6.716 15 15 15h64.267c8.284 0 15-6.716 15-15v-19.267h-94.267z"/><path d="m114.647 317.067h94.267v130.667h-94.267z"/></svg>