<svg id="Outline" height="512" viewBox="0 0 512 512" width="512" xmlns="http://www.w3.org/2000/svg"><path d="m123.109 458.7c1.305 20.916 17.5 37.3 36.868 37.3h192.046c19.37 0 35.564-16.384 36.869-37.3l27.092-434.2a8 8 0 0 0 -7.984-8.5h-304a8 8 0 0 0 -7.984 8.5zm228.914 21.3h-192.046c-9.017 0-16.835-6.658-19.742-16h231.53c-2.907 9.342-10.724 16-19.742 16zm-104.023-32v-32h32v32zm151.485-416-3 48h-36.485a8 8 0 0 0 0 16h35.492l-21.964 352h-77.528v-40a8 8 0 0 0 -8-8h-48a8 8 0 0 0 -8 8v40h-93.528l-21.964-352h211.492a8 8 0 0 0 0-16h-212.49l-3-48z"/><path d="m197.657 346.343a8 8 0 0 0 -11.314 0l-32 32a8 8 0 0 0 0 11.314l32 32a8 8 0 0 0 11.314 0l32-32a8 8 0 0 0 0-11.314zm-5.657 58.343-20.686-20.686 20.686-20.686 20.686 20.686z"/><path d="m325.657 322.343a8 8 0 0 0 -11.314 0l-32 32a8 8 0 0 0 0 11.314l32 32a8 8 0 0 0 11.314 0l32-32a8 8 0 0 0 0-11.314zm-5.657 58.343-20.687-20.686 20.687-20.686 20.687 20.686z"/><path d="m272 176a24 24 0 1 0 -24-24 24.027 24.027 0 0 0 24 24zm0-32a8 8 0 1 1 -8 8 8.009 8.009 0 0 1 8-8z"/><path d="m176 200a24 24 0 1 0 -24-24 24.027 24.027 0 0 0 24 24zm0-32a8 8 0 1 1 -8 8 8.009 8.009 0 0 1 8-8z"/><path d="m320 200a24 24 0 1 0 24-24 24.027 24.027 0 0 0 -24 24zm32 0a8 8 0 1 1 -8-8 8.009 8.009 0 0 1 8 8z"/><path d="m240 200a24 24 0 1 0 24 24 24.027 24.027 0 0 0 -24-24zm0 32a8 8 0 1 1 8-8 8.009 8.009 0 0 1 -8 8z"/><circle cx="207.96" cy="119.96" r="8.04"/><circle cx="191.96" cy="295.96" r="8.04"/><circle cx="271.96" cy="271.96" r="8.04"/><circle cx="151.96" cy="223.96" r="8.04"/><circle cx="343.96" cy="247.96" r="8.04"/><circle cx="351.96" cy="119.96" r="8.04"/></svg>