<svg height="479pt" viewBox="0 0 479 479.76016" width="479pt" xmlns="http://www.w3.org/2000/svg"><path d="m477.796875 443.480469-70.535156-70.542969 29.429687 7.886719c.675782.1875 1.375.28125 2.074219.28125 2.859375 0 5.5-1.523438 6.925781-4 1.429688-2.476563 1.429688-5.523438 0-8l-7.316406-12.640625 12.652344-7.320313c2.796875-1.621093 4.34375-4.765625 3.921875-7.96875s-2.734375-5.839843-5.855469-6.679687l-44.535156-11.925782 37.597656-15.480468c6.339844-2.605469 10.3125-8.960938 9.886719-15.800782-.429688-6.839843-5.167969-12.644531-11.78125-14.4375l-35.160157-9.601562-9.601562-35.199219c-1.800781-6.609375-7.605469-11.335937-14.441406-11.761719-6.835938-.421874-13.183594 3.546876-15.789063 9.878907l-29.367187 71.425781-46.863282-46.863281c50.566407-68.660157 38.359376-164.917969-27.742187-218.785157-66.101563-53.867187-162.84375-46.386718-219.878906 17-57.035157 63.386719-54.300781 160.378907 6.21875 220.449219.191406.222657.433593.488281.601562.65625l.054688-.058593c55.867187 55.25 143.6875 61.476562 206.792969 14.664062l46.886718 46.867188-71.375 29.382812c-6.339844 2.605469-10.3125 8.960938-9.882812 15.796875.425781 6.839844 5.164062 12.648437 11.777344 14.441406l35.160156 9.601563 9.601562 35.199218c1.75 6.644532 7.59375 11.394532 14.457032 11.753907h1.039062c6.480469.035156 12.324219-3.890625 14.734375-9.90625l15.488281-37.597657 11.929688 44.535157c.835937 3.121093 3.472656 5.433593 6.679687 5.855469.347657.046874.695313.070312 1.046875.070312 2.859375 0 5.5-1.523438 6.929688-4l7.300781-12.636719 12.648437 7.308594c2.804688 1.582031 6.277344 1.332031 8.824219-.636719s3.664063-5.269531 2.839844-8.378906l-7.878906-29.429688 70.527343 70.535157c3.125 3.121093 8.1875 3.121093 11.3125 0l22.632813-22.625c3.121094-3.125 3.121094-8.1875 0-11.3125zm-51.488281-98.535157-2.863282 1.664063c-3.824218 2.210937-5.128906 7.105469-2.921874 10.929687l1.601562 2.832032-37.496094-10.058594-13.855468-13.847656 9.390624-3.863282zm-95.589844 8-11.3125-11.3125 22.621094-22.621093 11.3125 11.308593zm49.367188-116.671874 10.792968 39.578124c.746094 2.722657 2.875 4.851563 5.597656 5.597657l39.578126 10.792969-69.53125 28.625-13.191407-13.191407-1.886719-1.890625zm-320.5625 26.320312c-17.660157-22.386719-27.226563-50.085938-27.148438-78.601562.347656-66.507813 51.332031-121.789063 117.597656-127.503907 1.535156-.207031 3.136719-.261719 4.976563-.34375 3.617187-.144531 6.992187-.152343 11.089843 0 1.597657.074219 3.199219.128907 4.964844.363281 40.378906 4.144532 74.652344 31.402344 87.78125 69.808594 13.132813 38.40625 2.71875 80.945313-26.667968 108.941406-.214844.191407-.417969.382813-.609376.585938-24.539062 23.023438-58.707031 32.75-91.695312 26.101562-32.082031-7.214843-57.335938-31.941406-65.230469-63.863281-1.316406-4.585937-2.054687-9.320312-2.207031-14.089843-.03125-46.90625 36.773438-85.570313 83.621094-87.855469 2.953125-.144531 5.761718-.144531 8.800781 0 24.988281 1.753906 46.660156 17.921875 55.453125 41.378906s3.09375 49.886719-14.585938 67.632813c-17.679687 17.75-44.089843 23.550781-67.578124 14.84375-14.949219-5.390626-25.121094-19.320313-25.710938-35.199219v-.800781c-.003906-9.566407 2.882812-18.914063 8.285156-26.8125-.070312.941406-.285156 1.847656-.285156 2.8125 0 22.09375 17.90625 40 40 40 22.089844 0 40-17.90625 40-40 0-22.089844-17.910156-40-40-40-1.335938-.027344-2.671875.03125-4 .167968-33.710938 2.113282-59.980469 30.058594-60 63.832032v1.035156c.710938 22.457031 15 42.226562 36.101562 49.949218 24.558594 9.085938 52.003907 5.59375 73.507813-9.347656 21.5-14.941406 34.339844-39.449218 34.390625-65.636718-.144531-42.136719-32.839844-76.996094-74.882812-79.839844-3.453126-.160156-6.535157-.167969-10.480469 0-55.300781 2.785156-98.695313 48.46875-98.636719 103.839844.148438 6.140624 1.0625 12.234374 2.726562 18.144531 9.46875 37.820312 39.492188 67.046875 77.550782 75.496093 38.21875 7.6875 77.789062-3.664062 106.121094-30.4375l.144531-.136718c33.992187-32.230469 46.128906-81.292969 31.074219-125.648438-15.054688-44.359375-54.542969-75.902344-101.132813-80.785156-1.980469-.261719-4-.367188-6.398437-.464844-4.070313-.167968-7.800782-.167968-12.488282.007813-2.070312.089843-4.128906.195312-5.726562.410156-69.746094 6.207031-125.042969 61.460937-131.304688 131.199219-.289062-3.925782-.566406-7.785156-.566406-11.785156-.144531-68.75 48.238281-128.050782 115.617188-141.714844 67.378906-13.664063 135.039062 22.109375 161.691406 85.484375 26.648437 63.375 4.886718 136.75-52.007813 175.347656-56.894531 38.59375-133.117187 31.691406-182.152343-16.5zm100.851562-126.601562c13.253906 0 24 10.746093 24 24 0 13.257812-10.746094 24-24 24-13.257812 0-24-10.742188-24-24 0-13.253907 10.742188-24 24-24zm118.476562 131.152343 46.21875 46.21875-11.328124 11.328125-46.21875-46.21875c3.964843-3.589844 7.742187-7.363281 11.328124-11.328125zm13.808594 168.554688-10.792968-39.578125c-.746094-2.722656-2.875-4.851563-5.597657-5.597656l-39.578125-10.792969 69.53125-28.625 13.191406 13.191406 1.886719 1.890625zm68.089844-13.90625-2.839844-1.648438c-3.828125-2.207031-8.71875-.898437-10.929687 2.929688l-1.648438 2.855469-12.359375-46.121094 3.871094-9.40625 13.847656 13.855468zm88.800781 38.65625-101.867187-101.832031 11.3125-11.3125 101.832031 101.832031zm0 0"/></svg>