<svg id="Layer_3" enable-background="new 0 0 64 64" height="512" viewBox="0 0 64 64" width="512" xmlns="http://www.w3.org/2000/svg"><path d="m41 1h-18c-2.757 0-5 2.243-5 5v38c0 2.757 2.243 5 5 5h5v10c0 2.206 1.794 4 4 4s4-1.794 4-4v-10h5c2.757 0 5-2.243 5-5v-38c0-2.757-2.243-5-5-5zm-18 2h18c1.654 0 3 1.346 3 3v25h-2c-.552 0-1-.449-1-1v-10c0-1.654-1.346-3-3-3s-3 1.346-3 3v2c0 .551-.448 1-1 1s-1-.449-1-1v-6c0-1.654-1.346-3-3-3s-3 1.346-3 3c0 .551-.448 1-1 1s-1-.449-1-1v-2c0-1.654-1.346-3-3-3h-2v-5c0-1.654 1.346-3 3-3zm11 56c0 1.103-.897 2-2 2s-2-.897-2-2v-10h4zm7-12h-18c-1.654 0-3-1.346-3-3v-31h2c.552 0 1 .449 1 1v2c0 1.654 1.346 3 3 3s3-1.346 3-3c0-.551.448-1 1-1s1 .449 1 1v6c0 1.654 1.346 3 3 3s3-1.346 3-3v-2c0-.551.448-1 1-1s1 .449 1 1v10c0 1.654 1.346 3 3 3h2v11c0 1.654-1.346 3-3 3z"/><path d="m34 27c-1.654 0-3 1.346-3 3v2c0 1.654 1.346 3 3 3s3-1.346 3-3v-2c0-1.654-1.346-3-3-3zm1 5c0 .551-.448 1-1 1s-1-.449-1-1v-2c0-.551.448-1 1-1s1 .449 1 1z"/></svg>