<svg id="Layer_3" enable-background="new 0 0 64 64" height="512" viewBox="0 0 64 64" width="512" xmlns="http://www.w3.org/2000/svg"><path d="m47 1h-30c-2.757 0-5 2.243-5 5v52c0 2.757 2.243 5 5 5h30c2.757 0 5-2.243 5-5v-52c0-2.757-2.243-5-5-5zm3 57c0 1.654-1.346 3-3 3h-30c-1.654 0-3-1.346-3-3v-52c0-1.654 1.346-3 3-3h30c1.654 0 3 1.346 3 3z"/><path d="m29 5h6v2h-6z"/><path d="m44 5h-6c-.459 0-.858.312-.97.758l-.5 2c-.183.731-.838 1.242-1.592 1.242h-5.877c-.754 0-1.408-.511-1.592-1.242l-.5-2c-.111-.446-.51-.758-.969-.758h-6c-2.206 0-4 1.794-4 4v46c0 2.206 1.794 4 4 4h24c2.206 0 4-1.794 4-4v-46c0-2.206-1.794-4-4-4zm2 50c0 1.103-.897 2-2 2h-24c-1.103 0-2-.897-2-2v-46c0-1.103.897-2 2-2h5.219l.312 1.242c.405 1.624 1.857 2.758 3.531 2.758h5.877c1.674 0 3.126-1.134 3.531-2.758l.311-1.242h5.219c1.103 0 2 .897 2 2z"/><path d="m26 13h-4c-.553 0-1 .447-1 1v4c0 .553.447 1 1 1h4c.553 0 1-.447 1-1v-4c0-.553-.447-1-1-1zm-1 4h-2v-2h2z"/><path d="m34 13h-4c-.553 0-1 .447-1 1v4c0 .553.447 1 1 1h4c.553 0 1-.447 1-1v-4c0-.553-.447-1-1-1zm-1 4h-2v-2h2z"/><path d="m42 13h-4c-.553 0-1 .447-1 1v4c0 .553.447 1 1 1h4c.553 0 1-.447 1-1v-4c0-.553-.447-1-1-1zm-1 4h-2v-2h2z"/><path d="m26 21h-4c-.553 0-1 .447-1 1v4c0 .553.447 1 1 1h4c.553 0 1-.447 1-1v-4c0-.553-.447-1-1-1zm-1 4h-2v-2h2z"/><path d="m34 21h-4c-.553 0-1 .447-1 1v4c0 .553.447 1 1 1h4c.553 0 1-.447 1-1v-4c0-.553-.447-1-1-1zm-1 4h-2v-2h2z"/><path d="m42 21h-4c-.553 0-1 .447-1 1v4c0 .553.447 1 1 1h4c.553 0 1-.447 1-1v-4c0-.553-.447-1-1-1zm-1 4h-2v-2h2z"/><path d="m26 49h-4c-.553 0-1 .447-1 1v4c0 .553.447 1 1 1h4c.553 0 1-.447 1-1v-4c0-.553-.447-1-1-1zm-1 4h-2v-2h2z"/><path d="m34 49h-4c-.553 0-1 .447-1 1v4c0 .553.447 1 1 1h4c.553 0 1-.447 1-1v-4c0-.553-.447-1-1-1zm-1 4h-2v-2h2z"/><path d="m42 49h-4c-.553 0-1 .447-1 1v4c0 .553.447 1 1 1h4c.553 0 1-.447 1-1v-4c0-.553-.447-1-1-1zm-1 4h-2v-2h2z"/><path d="m26 29h-4c-.553 0-1 .447-1 1v4c0 .553.447 1 1 1h4c.553 0 1-.447 1-1v-4c0-.553-.447-1-1-1zm-1 4h-2v-2h2z"/><path d="m34 29h-4c-.553 0-1 .447-1 1v4c0 .553.447 1 1 1h4c.553 0 1-.447 1-1v-4c0-.553-.447-1-1-1zm-1 4h-2v-2h2z"/></svg>