<svg id="Capa_1" enable-background="new 0 0 552.471 552.471" height="512" viewBox="0 0 552.471 552.471" width="512" xmlns="http://www.w3.org/2000/svg"><path d="m197.063 113.702c13.485 13.485 13.485 35.347 0 48.832s-35.347 13.485-48.832 0-13.485-35.347 0-48.832 35.348-13.485 48.832 0"/><path id="path-1_91_" d="m404.24 182.761c13.485 13.485 13.485 35.347 0 48.832s-35.347 13.485-48.832 0-13.485-35.347 0-48.832c13.484-13.485 35.347-13.485 48.832 0" transform="translate(9.902 4.902)"/><path id="path-1_90_" d="m231.592 389.938c13.485 13.485 13.485 35.347 0 48.832s-35.347 13.485-48.832 0-13.485-35.347 0-48.832 35.348-13.485 48.832 0" transform="translate(4.902 10.902)"/><path id="path-2_12_" d="m167.59 281.292c6.742 6.742 6.742 17.674 0 24.416s-17.674 6.742-24.416 0-6.742-17.674 0-24.416 17.674-6.742 24.416 0" transform="translate(3.951 7.951)"/><path id="path-2_9_" d="m271.178 246.762c6.742 6.742 6.742 17.674 0 24.416s-17.674 6.742-24.416 0-6.742-17.674 0-24.416c6.743-6.742 17.674-6.742 24.416 0" transform="translate(6.951 6.951)"/><path id="path-2_8_" d="m340.237 108.645c6.742 6.742 6.742 17.674 0 24.416s-17.674 6.742-24.416 0-6.742-17.674 0-24.416 17.674-6.742 24.416 0" transform="translate(8.951 2.951)"/><path d="m276.235 0c-152.313 0-276.235 123.922-276.235 276.235s123.922 276.235 276.235 276.235c5.277 0 10.453-.354 18.512-.91 8.986-.607 16.017-8.042 16.101-17.062.253-25.476 14.702-48.641 37.682-60.443 4.249-2.192 7.402-6.036 8.717-10.639s.641-9.543-1.821-13.64c-6.727-11.145-10.133-23.065-10.133-35.423 0-38.087 30.972-69.059 69.059-69.059 12.358 0 24.278 3.406 35.423 10.133 4.097 2.478 9.054 3.136 13.64 1.821 4.603-1.315 8.447-4.468 10.639-8.717 11.802-22.98 34.968-37.429 60.443-37.682 9.003-.084 16.624-10.015 17.265-18.984.354-5.176.708-10.352.708-15.629.001-152.315-123.921-276.236-276.235-276.236zm241.689 277.769c-26.201 4.468-49.67 18.951-65.585 40.464-12.173-4.923-25.071-7.469-37.986-7.469-57.122 0-103.588 46.466-103.588 103.588 0 12.915 2.546 25.813 7.469 37.986-21.513 15.916-35.996 39.385-40.464 65.586-.506.017-1.028.017-1.534.017-133.279 0-241.706-108.427-241.706-241.706s108.426-241.706 241.705-241.706 241.706 108.427 241.706 241.706c0 .506 0 1.029-.017 1.534z"/></svg>