<?xml version="1.0" encoding="iso-8859-1"?>
<!-- Generator: Adobe Illustrator 19.0.0, SVG Export Plug-In . SVG Version: 6.00 Build 0)  -->
<svg version="1.1" id="Capa_1" xmlns="http://www.w3.org/2000/svg" xmlns:xlink="http://www.w3.org/1999/xlink" x="0px" y="0px"
	 viewBox="0 0 512 512" style="enable-background:new 0 0 512 512;" xml:space="preserve">
<g>
	<g>
		<path d="M295.999,160c-5.52,0-10,4.48-10,10s4.48,10,10,10c5.52,0,10-4.48,10-10S301.52,160,295.999,160z"/>
	</g>
</g>
<g>
	<g>
		<path d="M195.999,40c-5.52,0-10,4.48-10,10s4.48,10,10,10s10-4.48,10-10S201.52,40,195.999,40z"/>
	</g>
</g>
<g>
	<g>
		<path d="M459.161,492.513c-55.322-18.44-69.052-60.367-63.998-90.669c6.89-41.361,13.251-85.573,8.854-131.364
			c-4.961-51.663-23.053-98.734-55.311-143.903c-12.117-16.964-22.269-31.858-31.226-44.999C279.306,25.564,261.882,0,214.369,0
			c-22.376,0-37.178,7.856-50.236,14.789c-3.591,1.906-7.01,3.706-10.428,5.271c-33.668,0.468-66.671,12.301-92.993,33.362
			l-10.96,8.77c-3.035,2.429-4.388,6.396-3.469,10.173s3.943,6.68,7.755,7.441l98.686,19.737l13.545,6.773
			c-26.228,30.828-40.27,82.411-40.27,119.814c0,39.368,0.011,128.658,52.349,208.128c-30.081,7.844-52.349,35.24-52.349,67.742
			c0,5.522,4.477,10,10,10c12.305,0,306.537,0,320,0c4.904,0,9.085-3.557,9.871-8.398
			C466.655,498.761,463.814,494.065,459.161,492.513z M145.999,77.802L79.285,64.459c19.592-13.886,42.797-22.247,66.714-24.05
			V77.802z M147.004,492c4.441-21.783,23.093-38.452,45.812-39.888L245.999,492H147.004z M305.999,492h-26.667l-76.179-57.135
			c-57.155-77.104-57.154-169.268-57.154-208.735c0-35.026,14.713-85.352,38.818-110.54l19.735,9.868
			c18.217,72.884,17.411,70.299,20.451,79.687c1.279,3.949,1.422,2.508-0.442,11.339c-0.506,2.396-1.127,5.344-1.868,9.045
			c-0.012,0.059-0.022,0.116-0.033,0.175l-11.924,65.634c-6.283,31.548,2.394,68.468,21.604,91.902
			c12.206,14.89,27.302,22.76,43.659,22.76c5.522,0,10-4.478,10-10v-91.13c0-1.003,0.29-2.363,0.777-3.962
			c15.575,36.69,19.164,71.108,19.223,94.702V492z M325.999,492v-96.414c-0.072-29.117-5.116-73.433-28.7-119.327
			c8.212-18.721,16.108-40.668,15.718-67.026c-0.081-5.522-4.599-9.908-10.146-9.852c-5.522,0.082-9.934,4.625-9.852,10.146
			c0.367,24.831-8.257,46.018-16.37,63.927l-1.365,3.004c-5.188,11.395-9.285,20.396-9.285,28.412v79.371
			c-7.902-2.834-14.033-8.607-18.191-13.681c-15.394-18.779-22.567-49.78-17.443-75.389c0.012-0.058,0.022-0.116,0.033-0.175
			l11.924-65.635c3.938-19.662,5.051-20.053,1.709-30.378c-2.932-9.059-2.184-6.77-21.19-82.838
			c-0.708-2.833-2.619-5.216-5.23-6.521L165.999,83.82V36.348c2.558-1.274,5.062-2.593,7.511-3.894
			C185.575,26.05,196.971,20,214.369,20c36.939,0,49.45,18.355,86.586,72.842c9.015,13.227,19.231,28.217,31.477,45.359
			c64.771,90.695,57.796,171.569,43.003,260.354c-5.662,33.953,7.631,69.821,39.297,93.445H325.999z"/>
	</g>
</g>
<g>
</g>
<g>
</g>
<g>
</g>
<g>
</g>
<g>
</g>
<g>
</g>
<g>
</g>
<g>
</g>
<g>
</g>
<g>
</g>
<g>
</g>
<g>
</g>
<g>
</g>
<g>
</g>
<g>
</g>
</svg>
