<svg id="Layer_3" enable-background="new 0 0 64 64" height="512" viewBox="0 0 64 64" width="512" xmlns="http://www.w3.org/2000/svg"><path d="m57 57h2v2h-2z"/><path d="m29 57h26v2h-26z"/><path d="m29 53h2v2h-2z"/><path d="m33 53h26v2h-26z"/><path d="m29 49h30v2h-30z"/><path d="m23.659 11.247-1.318 1.506 7.14 6.247-7.14 6.247 1.318 1.506 8.86-7.753z"/><path d="m14.341 11.247-8.86 7.753 8.86 7.753 1.318-1.506-7.14-6.247 7.14-6.247z"/><path d="m7.82 18h22.361v2h-22.361z" transform="matrix(.179 -.984 .984 .179 -3.09 34.299)"/><path d="m51.44 11h-16.339c-2.953-5.917-9.052-10-16.101-10-9.925 0-18 8.075-18 18s8.075 18 18 18c2.106 0 4.12-.383 6-1.05v27.05h38v-39.389zm.56 3.571 7.727 8.429h-7.727zm-49 4.429c0-8.822 7.178-16 16-16s16 7.178 16 16-7.178 16-16 16-16-7.178-16-16zm24 42v-25.899c1.173-.585 2.278-1.284 3.289-2.101h12.711v-2h-10.622c.568-.632 1.103-1.292 1.578-2h9.044v-2h-7.899c1.204-2.414 1.899-5.124 1.899-8 0-2.106-.383-4.12-1.05-6h14.05v12h11v36z"/><path d="m29 47h30v-12h-30zm2-10h26v8h-26z"/><path d="m45 31h10v2h-10z"/><path d="m57 31h2v2h-2z"/><path d="m45 27h14v2h-14z"/></svg>