<svg id="Layer_3" enable-background="new 0 0 64 64" height="512" viewBox="0 0 64 64" width="512" xmlns="http://www.w3.org/2000/svg"><path d="m44 37h1v-2h-1c-1.654 0-3-1.346-3-3v-4c0-.551-.449-1-1-1s-1 .449-1 1v4c0 2.757 2.243 5 5 5z"/><path d="m59 36v-4c0-.551-.449-1-1-1s-1 .449-1 1v4c0 1.654-1.346 3-3 3h-1v2h1c2.757 0 5-2.243 5-5z"/><path d="m51 52.002v-3.002h-2v-2h2v-6h-2v-2h2v-6h-2v-2h2v-6c0-1.103-.897-2-2-2s-2 .897-2 2v2h2v2h-2v6h2v2h-2v6h2v2h-2v6.259c1.244.481 2.576.741 3.95.741.017 0 .033.002.05.002z"/><path d="m25 30v-4c0-.551-.449-1-1-1s-1 .449-1 1v4c0 1.654-1.346 3-3 3h-1v2h1c2.757 0 5-2.243 5-5z"/><path d="m17 45v-6h-2v-2h2v-6h-2v-2h2v-6c0-1.103-.897-2-2-2s-2 .897-2 2v2h2v2h-2v6h2v2h-2v6h2v2h-2v2.046c.315-.023.63-.046.95-.046z"/><path d="m53.743 55.157c-.746-.746-1.738-1.157-2.793-1.157-3.459 0-6.711-1.347-9.157-3.793-2.068-2.068-4.818-3.207-7.743-3.207h-20.1c-2.925 0-5.674 1.139-7.743 3.207-2.068 2.068-3.207 4.818-3.207 7.743v3.05h56.586zm-36.743-4.157h-2.464c-2.013 0-3.905.784-5.329 2.207-1.298 1.298-2.077 3.023-2.192 4.856l-1.996-.126c.146-2.319 1.131-4.501 2.774-6.144 1.801-1.801 4.196-2.793 6.743-2.793h2.464z"/><path d="m10 39h1v-2h-1c-1.654 0-3-1.346-3-3v-4c0-.551-.449-1-1-1s-1 .449-1 1v4c0 2.757 2.243 5 5 5z"/><path d="m49 13c.038 0 .076.007.114.01.108.523.289 1.029.557 1.493l1.73-1.003c-.262-.453-.401-.972-.401-1.5 0-1.654 1.346-3 3-3s3 1.346 3 3c0 .528-.139 1.047-.401 1.5l1.731 1.002c.268-.463.449-.97.556-1.492.038-.003.076-.01.114-.01 1.103 0 2 .897 2 2s-.897 2-2 2h-10c-1.103 0-2-.897-2-2s.897-2 2-2z"/><path d="m5 7c.038 0 .076.007.114.01.107.523.288 1.029.556 1.492l1.731-1.002c-.262-.453-.401-.972-.401-1.5 0-1.654 1.346-3 3-3s3 1.346 3 3c0 .528-.139 1.047-.401 1.5l1.731 1.002c.268-.463.449-.97.556-1.492.038-.003.076-.01.114-.01 1.103 0 2 .897 2 2s-.897 2-2 2h-10c-1.103 0-2-.897-2-2s.897-2 2-2z"/><circle cx="32" cy="11" r="4"/><path d="m31 2h2v2h-2z"/><path d="m31 18h2v2h-2z"/><path d="m39 10h2v2h-2z"/><path d="m23 10h2v2h-2z"/><path d="m24 4.586h2v2.828h-2z" transform="matrix(.707 -.707 .707 .707 3.08 19.435)"/><path d="m24.586 16h2.828v2h-2.828z" transform="matrix(.707 -.707 .707 .707 -4.406 23.364)"/><path d="m37 15.586h2v2.828h-2z" transform="matrix(.707 -.707 .707 .707 -.891 31.849)"/><path d="m36.586 4h2.828v2h-2.828z" transform="matrix(.707 -.707 .707 .707 7.594 28.335)"/></svg>