<svg id="Capa_1" enable-background="new 0 0 512 512" height="512" viewBox="0 0 512 512" width="512" xmlns="http://www.w3.org/2000/svg"><path d="m356 302h-200c-8.284 0-15 6.716-15 15s6.716 15 15 15h200c8.284 0 15-6.716 15-15s-6.716-15-15-15z"/><path d="m436 362v-75c0-24.813-20.187-45-45-45h-70v-32h75c8.284 0 15-6.716 15-15v-5h55c24.813 0 45-20.187 45-45s-20.187-45-45-45h-65.091c-22.239-58.396-78.802-100-144.909-100-85.467 0-155 69.533-155 155v40c0 8.284 6.716 15 15 15h75v32h-70c-24.813 0-45 20.187-45 45v75c-41.355 0-75 33.645-75 75s33.645 75 75 75h360c41.355 0 75-33.645 75-75s-33.645-75-75-75zm30-232c8.271 0 15 6.729 15 15s-6.729 15-15 15h-55v-5c0-8.51-.7-16.859-2.026-25zm-210-100c40.808 0 77.109 19.658 99.937 50h-199.874c22.828-30.342 59.129-50 99.937-50zm-125 125c0-15.857 2.975-31.03 8.384-45h233.232c5.409 13.97 8.384 29.143 8.384 45v25h-40v-25c0-8.284-6.716-15-15-15s-15 6.716-15 15v25h-40v-25c0-8.284-6.716-15-15-15s-15 6.716-15 15v25h-40v-25c0-8.284-6.716-15-15-15s-15 6.716-15 15v25h-40zm90 55h70v32h-70zm-115 77c0-8.271 6.729-15 15-15h270c8.271 0 15 6.729 15 15v75h-300zm330 195h-360c-24.813 0-45-20.187-45-45s20.187-45 45-45h360c24.813 0 45 20.187 45 45s-20.187 45-45 45z"/><circle cx="436" cy="437" r="15"/><circle cx="376" cy="437" r="15"/><circle cx="316" cy="437" r="15"/><circle cx="76" cy="437" r="15"/><circle cx="136" cy="437" r="15"/><circle cx="196" cy="437" r="15"/><circle cx="256" cy="437" r="15"/></svg>