<svg id="Layer_1" height="512" viewBox="0 0 128 128" width="512" xmlns="http://www.w3.org/2000/svg" data-name="Layer 1"><path d="m116.149 26.53a1.746 1.746 0 0 0 -2.114.457 14.115 14.115 0 0 1 -19.849 1.871l-1.125-.931 1.12-1.427a7.047 7.047 0 0 0 -10.854-8.984l-1.189 1.365-5.522-4.571a1.749 1.749 0 0 0 -2.464.231l-19.281 23.298a1.75 1.75 0 0 0 .229 2.461l4.873 4.034-30.488 35.021-16.23 18.638a9.716 9.716 0 0 0 7.3 16.1 10.089 10.089 0 0 0 1.055-.056 9.645 9.645 0 0 0 6.6-3.654l43.99-55.929.475.393a14.114 14.114 0 0 1 1.87 19.853 1.75 1.75 0 0 0 2.034 2.727 69.306 69.306 0 0 0 40.514-48.946 1.749 1.749 0 0 0 -.944-1.951zm-30.183-6.711a3.547 3.547 0 0 1 5.464 4.521l-1.065 1.354-5.53-4.577zm-47.951 72.441-8.661-7.424 1.63-1.872 8.539 7.38zm-12.548 15.955a6.215 6.215 0 1 1 -9.572-7.923l11.159-12.816 8.794 7.538zm16.221-20.625-8.406-7.265 29.392-33.756 6.826 5.652zm33.218-35.439-1.887-1.562-14.336-11.866 17.049-20.6 16.223 13.431a17.488 17.488 0 0 0 9.845 3.976 65.408 65.408 0 0 1 -21.15 25.552 17.491 17.491 0 0 0 -5.744-8.931zm5.278 19.68a17.6 17.6 0 0 0 1.065-6.9 68.92 68.92 0 0 0 24.441-29.531 17.6 17.6 0 0 0 6.585-2.337 65.841 65.841 0 0 1 -32.091 38.768z"/></svg>