<?xml version="1.0" encoding="iso-8859-1"?>
<!-- Generator: Adobe Illustrator 19.0.0, SVG Export Plug-In . SVG Version: 6.00 Build 0)  -->
<svg version="1.1" id="Capa_1" xmlns="http://www.w3.org/2000/svg" xmlns:xlink="http://www.w3.org/1999/xlink" x="0px" y="0px"
	 viewBox="0 0 216.775 216.775" style="enable-background:new 0 0 216.775 216.775;" xml:space="preserve">
<path d="M216.775,49.243v138.765c0,4.142-3.357,7.5-7.5,7.5h-19.282c-4.143,0-7.5-3.358-7.5-7.5V98.296
	c0-3.083-2.509-5.592-5.592-5.592s-5.592,2.508-5.592,5.592v89.712c0,4.142-3.357,7.5-7.5,7.5h-22.49
	c-13.967,0-25.33-12.906-25.33-28.771v-60.526c0.225-0.096,0.449-0.193,0.668-0.313l48.368-26.546
	c3.51-1.926,4.888-6.269,3.131-9.866l-5.135-10.515l8.024-2.527c3.415-1.075,5.594-4.413,5.203-7.972l-2.574-23.461l28.614,5.143
	c0.045,0.008,0.09,0.017,0.135,0.026C210.74,31.833,216.775,39.85,216.775,49.243z M145.568,51.473
	c0.861-2.006,2.556-3.538,4.639-4.193l10.46-3.293l-2.385-21.741l-4.798-0.862c-1.391-0.251-2.769-0.082-4.017,0.399
	c-0.219,0.046-0.439,0.1-0.657,0.168c-0.174,0.053-17.572,5.359-40.351,5.359c-22.661,0-39.998-5.25-40.348-5.358
	c-0.302-0.094-0.606-0.16-0.909-0.214c-1.22-0.449-2.56-0.598-3.912-0.354l-4.799,0.863l-2.385,21.741l10.46,3.293
	c2.083,0.656,3.777,2.187,4.639,4.193c0.862,2.007,0.807,4.289-0.151,6.251l-5.82,11.918l34.13,18.732L77.358,38.941
	c7.901,1.451,18.729,2.853,31.102,2.853c12.292,0,23.058-1.383,30.945-2.824l-21.993,49.404l34.129-18.731l-5.82-11.918
	C144.762,55.762,144.706,53.48,145.568,51.473z M100.117,105.898L51.749,79.351c-3.51-1.926-4.888-6.269-3.131-9.866l5.135-10.515
	l-8.024-2.527c-3.415-1.075-5.594-4.413-5.203-7.972L43.1,25.01l-28.613,5.143c-0.045,0.008-0.09,0.017-0.135,0.026
	C6.035,31.833,0,39.85,0,49.243v138.765c0,4.142,3.357,7.5,7.5,7.5h19.281c4.143,0,7.5-3.358,7.5-7.5V98.296
	c0-3.083,2.509-5.592,5.592-5.592s5.592,2.508,5.592,5.592v89.712c0,4.142,3.357,7.5,7.5,7.5h22.491
	c13.967,0,25.33-12.906,25.33-28.771v-60.525C100.561,106.115,100.336,106.018,100.117,105.898z"/>
<g>
</g>
<g>
</g>
<g>
</g>
<g>
</g>
<g>
</g>
<g>
</g>
<g>
</g>
<g>
</g>
<g>
</g>
<g>
</g>
<g>
</g>
<g>
</g>
<g>
</g>
<g>
</g>
<g>
</g>
</svg>
