<svg id="filled_outline" height="512" viewBox="0 0 512 512" width="512" xmlns="http://www.w3.org/2000/svg" data-name="filled outline"><path d="m48.00012 32h416a24 24 0 0 1 24 24v240a0 0 0 0 1 0 0h-464a0 0 0 0 1 0 0v-240a24 24 0 0 1 24-24z" fill="#41a4e8"/><path d="m24.00012 296h464a0 0 0 0 1 0 0v40a24 24 0 0 1 -24 24h-416a24 24 0 0 1 -24-24v-40a0 0 0 0 1 0 0z" fill="#d3d8db"/><path d="m200 416 16-56h80l16 56z" fill="#b8bdc2"/><path d="m360 448h-216l-8 32h232z" fill="#d3d8db"/><path d="m480.00012 480 8-8v-16l-1.85788-1.85788a48.2842 48.2842 0 0 0 -34.1421-14.14212 48.28422 48.28422 0 0 0 -34.1421 14.14212l-1.85792 1.85788v16l8 8z" fill="#d3d8db"/><path d="m464 24h-416a32.03635 32.03635 0 0 0 -32 32v280a32.03635 32.03635 0 0 0 32 32h157.39386l-11.42859 40h-17.96527v16h160v-16h-17.96533l-11.42847-40h157.3938a32.03635 32.03635 0 0 0 32-32v-280a32.03635 32.03635 0 0 0 -32-32zm-416 16h416a16.01833 16.01833 0 0 1 16 16v232h-448v-232a16.01833 16.01833 0 0 1 16-16zm253.3938 368h-90.78766l11.42859-40h67.9306zm162.6062-56h-416a16.01833 16.01833 0 0 1 -16-16v-32h448v32a16.01833 16.01833 0 0 1 -16 16z"/><circle cx="256" cy="328" r="8"/><path d="m392 472h-17.75366l-6.48511-25.94043a8.00005 8.00005 0 0 0 -7.76123-6.05957h-216a8.00005 8.00005 0 0 0 -7.76123 6.05957l-6.48511 25.94043h-17.75366v16h280zm-34.24622 0h-21.75378v-16h17.75391zm-141.75378-16h72v16h-72zm-16 16h-16v-16h16zm104-16h16v16h-16zm-153.75391 0h17.75391v16h-21.75378z"/><path d="m491.79932 448.48633a56.28254 56.28254 0 0 0 -79.59766-.001l-1.85791 1.85742a7.99952 7.99952 0 0 0 -2.34375 5.65725v16a8.00076 8.00076 0 0 0 2.34326 5.65723l8 8a8.00035 8.00035 0 0 0 5.65674 2.34277h56a8.00035 8.00035 0 0 0 5.65674-2.34277l8-8a8.00076 8.00076 0 0 0 2.34326-5.65723v-16a7.99952 7.99952 0 0 0 -2.34375-5.65723zm-11.79932 20.20019-3.31348 3.31348h-49.373l-3.31352-3.31348v-9.36425a40.28317 40.28317 0 0 1 56 0z"/></svg>