<svg id="Layer_5" enable-background="new 0 0 64 64" height="512" viewBox="0 0 64 64" width="512" xmlns="http://www.w3.org/2000/svg"><circle cx="11" cy="24" r="1"/><path d="m54.766 41.785c.879-1.498 1.539-3.099 1.97-4.785h-4.582c-.092.336-.154.671-.154 1 0 1.772 1.167 3.262 2.766 3.785z"/><path d="m61 33c0-1.103-.897-2-2-2h-54c-1.103 0-2 .897-2 2s.897 2 2 2h54c1.103 0 2-.897 2-2z"/><path d="m17.592 29c1.507-5.084 5.696-8.802 10.81-9.754-1.601-4.906-6.144-8.246-11.402-8.246-6.617 0-12 5.383-12 12 0 2.12.56 4.181 1.614 6zm4.408-13h2v2h-2zm-6-3c1.654 0 3 1.346 3 3s-1.346 3-3 3-3-1.346-3-3 1.346-3 3-3zm-5 8c1.654 0 3 1.346 3 3s-1.346 3-3 3-3-1.346-3-3 1.346-3 3-3z"/><path d="m31 21c-5.159 0-9.638 3.234-11.311 8h9.311c-1.654 0-3-1.346-3-3s1.346-3 3-3 3 1.346 3 3-1.346 3-3 3h5.355c-.886-1.866-1.355-3.909-1.355-6 0-.607.052-1.201.127-1.788-.701-.126-1.41-.212-2.127-.212z"/><circle cx="29" cy="26" r="1"/><path d="m36.613 29h20.773c1.053-1.819 1.614-3.88 1.614-6 0-6.617-5.383-12-12-12s-12 5.383-12 12c0 2.12.56 4.18 1.613 6zm11.387-3h-2v-2h2zm3-10h2v2h-2zm2 5c1.654 0 3 1.346 3 3h-2c0-.551-.449-1-1-1s-1 .449-1 1 .449 1 1 1v2c-1.654 0-3-1.346-3-3s1.346-3 3-3zm-8-8c1.654 0 3 1.346 3 3s-1.346 3-3 3-3-1.346-3-3 1.346-3 3-3zm-4 7c1.654 0 3 1.346 3 3s-1.346 3-3 3v-2c.551 0 1-.449 1-1s-.449-1-1-1-1 .449-1 1h-2c0-1.654 1.346-3 3-3z"/><circle cx="45" cy="16" r="1"/><path d="m30.417 19.025c.194-.008.387-.025.583-.025.851 0 1.692.103 2.524.255.747-2.682 2.268-5.039 4.315-6.817-.534-.69-.839-1.54-.839-2.438 0-.774.219-1.515.627-2.152-2.263-3.049-5.812-4.848-9.627-4.848-4.348 0-8.281 2.325-10.403 6.025 6.017.251 11.129 4.249 12.82 10zm3.583-10.025v2c-.551 0-1 .449-1 1s.449 1 1 1v2c-1.654 0-3-1.346-3-3s1.346-3 3-3zm-9-1c0-1.654 1.346-3 3-3s3 1.346 3 3-1.346 3-3 3-3-1.346-3-3z"/><circle cx="28" cy="8" r="1"/><circle cx="16" cy="16" r="1"/><circle cx="46" cy="44" r="1"/><path d="m41.826 37h-34.566c2.091 8.178 9.476 14 18.019 14h9.881c-.095-.655-.16-1.319-.16-2 0-5.096 2.745-9.551 6.826-12zm-15.826 12h-.721c-6.423 0-12.331-3.759-15.052-9.576l1.812-.848c2.393 5.117 7.59 8.424 13.24 8.424h.721zm4 0h-2v-2h2z"/><path d="m60 47c-2.017 0-3.805-1.212-4.582-3.028-3.036-.293-5.418-2.86-5.418-5.972 0-.315.027-.631.08-.947-.366-.035-.725-.053-1.08-.053-6.617 0-12 5.383-12 12s5.383 12 12 12 12-5.383 12-12c0-.677-.063-1.368-.189-2.065-.267.043-.537.065-.811.065zm-18 7v-2c.551 0 1-.449 1-1s-.449-1-1-1-1 .449-1 1h-2c0-1.654 1.346-3 3-3s3 1.346 3 3-1.346 3-3 3zm1-10c0-1.654 1.346-3 3-3s3 1.346 3 3-1.346 3-3 3-3-1.346-3-3zm7 15c-1.654 0-3-1.346-3-3s1.346-3 3-3v2c-.551 0-1 .449-1 1s.449 1 1 1 1-.449 1-1h2c0 1.654-1.346 3-3 3zm3-11c-.551 0-1 .449-1 1s.449 1 1 1v2c-1.654 0-3-1.346-3-3s1.346-3 3-3 3 1.346 3 3h-2c0-.551-.449-1-1-1zm4 6h-2v-2h2z"/></svg>