<?xml version="1.0" encoding="iso-8859-1"?>
<!-- Generator: Adobe Illustrator 19.0.0, SVG Export Plug-In . SVG Version: 6.00 Build 0)  -->
<svg version="1.1" id="Layer_1" xmlns="http://www.w3.org/2000/svg" xmlns:xlink="http://www.w3.org/1999/xlink" x="0px" y="0px"
	 viewBox="0 0 512 512" style="enable-background:new 0 0 512 512;" xml:space="preserve">
<g>
	<g>
		<path d="M468.031,307.492c-18.102,0-32.828,14.727-32.828,32.828c0,12.961-10.544,23.504-23.504,23.504
			c-12.961,0-23.504-10.544-23.504-23.504V224.699c5.514-6.705,8.83-15.284,8.83-24.623c0-9.34-3.316-17.919-8.83-24.624v-43.257
			C388.194,59.303,328.892,0,256,0S123.806,59.303,123.806,132.195v43.257c-5.514,6.706-8.83,15.284-8.83,24.624
			c0,9.339,3.316,17.918,8.83,24.623v115.622c0,12.961-10.544,23.504-23.505,23.504c-12.96,0-23.504-10.544-23.504-23.504
			c0-18.101-14.726-32.828-32.828-32.828S11.14,322.221,11.14,340.321c0,49.163,39.997,89.161,89.16,89.161
			c23.706,0,45.74-9.324,62.043-26.251c16.089-16.707,24.95-39.049,24.95-62.911v-67.093h2.079v205.944
			c0,18.101,14.726,32.828,32.828,32.828c18.101,0,32.828-14.727,32.828-32.828V273.227h1.944v205.944
			c0,18.101,14.726,32.828,32.828,32.828s32.828-14.727,32.828-32.828V273.227h2.079v67.093c0,23.862,8.861,46.204,24.95,62.911
			c16.303,16.927,38.337,26.251,62.043,26.251c49.163,0,89.16-39.997,89.16-89.162C500.859,322.219,486.133,307.492,468.031,307.492
			z M380.768,200.075c0,12.445-10.124,22.569-22.569,22.569c-12.445,0-22.569-10.124-22.569-22.569
			c0-12.445,10.124-22.57,22.569-22.57C370.644,177.505,380.768,187.63,380.768,200.075z M153.801,177.505
			c12.445,0,22.569,10.126,22.569,22.57c0,12.445-10.124,22.569-22.569,22.569s-22.569-10.123-22.569-22.569
			C131.232,187.63,141.356,177.505,153.801,177.505z M411.699,413.226c-39.665,0-70.737-32.024-70.737-72.905v-75.221
			c0-4.49-3.639-8.128-8.128-8.128h-18.335c-4.489,0-8.128,3.638-8.128,8.128v214.072c0,9.138-7.433,16.572-16.572,16.572
			c-9.138,0-16.572-7.433-16.572-16.572V265.099c0-4.49-3.639-8.128-8.128-8.128h-18.201c-4.489,0-8.128,3.638-8.128,8.128v214.072
			c0,9.138-7.433,16.572-16.572,16.572c-9.138,0-16.572-7.433-16.572-16.572V265.099c0-4.49-3.639-8.128-8.128-8.128h-18.335
			c-4.489,0-8.128,3.638-8.128,8.128v75.221c0,40.881-31.071,72.905-70.738,72.905c-40.2,0-72.904-32.706-72.904-72.905
			c0-9.138,7.433-16.572,16.572-16.572c9.138,0,16.572,7.433,16.572,16.572c0,21.923,17.836,39.761,39.761,39.761
			c21.924,0,39.762-17.836,39.762-39.761V236.382c4.274,1.622,8.903,2.519,13.739,2.519c21.408,0,38.826-17.417,38.826-38.826
			c0-21.41-17.417-38.827-38.826-38.827c-4.836,0-9.464,0.896-13.739,2.519v-31.573C140.062,68.266,192.072,16.256,256,16.256
			s115.938,52.009,115.938,115.939v31.573c-4.274-1.622-8.903-2.519-13.739-2.519c-21.408,0-38.825,17.417-38.825,38.827
			c0,21.409,17.417,38.826,38.825,38.826c4.836,0,9.464-0.896,13.739-2.519v103.939c0,21.923,17.836,39.761,39.761,39.761
			s39.761-17.836,39.761-39.761c0-9.138,7.433-16.572,16.572-16.572s16.572,7.433,16.572,16.572
			C484.603,380.52,451.898,413.226,411.699,413.226z"/>
	</g>
</g>
<g>
	<g>
		<circle cx="153.8" cy="200.075" r="10.092"/>
	</g>
</g>
<g>
	<g>
		<circle cx="358.202" cy="200.072" r="10.091"/>
	</g>
</g>
<g>
</g>
<g>
</g>
<g>
</g>
<g>
</g>
<g>
</g>
<g>
</g>
<g>
</g>
<g>
</g>
<g>
</g>
<g>
</g>
<g>
</g>
<g>
</g>
<g>
</g>
<g>
</g>
<g>
</g>
</svg>
