<?xml version="1.0" encoding="iso-8859-1"?>
<!-- Generator: Adobe Illustrator 18.0.0, SVG Export Plug-In . SVG Version: 6.00 Build 0)  -->
<!DOCTYPE svg PUBLIC "-//W3C//DTD SVG 1.1//EN" "http://www.w3.org/Graphics/SVG/1.1/DTD/svg11.dtd">
<svg version="1.1" id="Capa_1" xmlns="http://www.w3.org/2000/svg" xmlns:xlink="http://www.w3.org/1999/xlink" x="0px" y="0px"
	 viewBox="0 0 59.61 59.61" style="enable-background:new 0 0 59.61 59.61;" xml:space="preserve">
<g>
	<path d="M52.241,35.291c-0.441-0.446-1.001-0.682-1.619-0.682c-3.163,0-7.83,6.74-7.83,12.796c0,6.786,2.803,9.204,5.425,9.204
		s5.425-2.418,5.425-9.204c0-0.728,0.007-1.465,0.015-2.196C53.699,40.698,53.737,36.801,52.241,35.291z"/>
	<path d="M35.138,54.72c-1.87-1.205-4.249-1.914-7.07-2.108c-0.538-0.028-1.027,0.378-1.066,0.93
		c-0.037,0.551,0.379,1.028,0.93,1.066c2.48,0.17,4.541,0.773,6.125,1.794c0.167,0.107,0.354,0.159,0.54,0.159
		c0.329,0,0.65-0.162,0.842-0.459C35.736,55.638,35.603,55.019,35.138,54.72z"/>
	<path d="M15.595,44.323c-0.882-1.92-1.975-3.552-3.245-4.85c-0.386-0.394-1.019-0.402-1.414-0.016
		c-0.395,0.387-0.401,1.02-0.016,1.414c1.11,1.134,2.071,2.576,2.858,4.287c0.168,0.366,0.53,0.582,0.909,0.582
		c0.14,0,0.281-0.029,0.417-0.092C15.606,45.418,15.826,44.825,15.595,44.323z"/>
	<path d="M23.853,34.578c1.191,1.446,2.494,2.643,3.874,3.559c0.17,0.113,0.362,0.167,0.552,0.167c0.324,0,0.642-0.157,0.834-0.447
		c0.306-0.46,0.181-1.08-0.28-1.386c-1.215-0.807-2.371-1.871-3.437-3.164c-0.35-0.426-0.979-0.487-1.407-0.136
		C23.562,33.521,23.501,34.152,23.853,34.578z"/>
	<path d="M9.746,26.868c0.096,0.028,0.193,0.042,0.288,0.042c0.43,0,0.827-0.279,0.958-0.712c0.632-2.101,0.896-4.065,0.785-5.84
		c-0.034-0.552-0.494-0.976-1.061-0.936c-0.551,0.034-0.97,0.509-0.936,1.061c0.096,1.537-0.141,3.266-0.705,5.139
		C8.917,26.15,9.217,26.708,9.746,26.868z"/>
	<path d="M40.792,47.406c0-4.167,1.907-8.675,4.425-11.608c-0.262,0.064-0.527,0.127-0.787,0.191
		c-3.473,0.855-7.063,1.739-9.751,1.739c-0.568,0-1.078-0.044-1.537-0.124c0.039-1.521-1.583-3.563-3.545-5.169
		c-1.904-1.559-3.9-2.527-5.212-2.527c-0.194,0-0.365,0.022-0.52,0.056c-4.36-7.777-4.222-19.737-2.708-27.846
		c0.102-0.543-0.038-1.091-0.381-1.505c-0.659-0.793-1.938-0.827-2.62-0.039c-3.451,3.984-6.422,9.918-8.063,16.01l-0.658-0.065
		l-0.159-0.008c-1.957,0-2.977,3.284-3.254,6.098c-0.312,3.167,0.234,6.447,2.158,6.638l0.516,0.051
		c0.153,2.509,0.584,4.897,1.284,7.129L7.834,38.03c-1.548,1.156-0.32,4.248,1.583,6.799c1.365,1.827,3.401,3.781,5.025,3.781
		c0.392,0,0.752-0.114,1.042-0.331l1.309-0.977c2.237,2.075,4.919,3.821,7.992,5.204l-0.438,1.348
		c-0.634,1.951,2.385,3.898,5.656,4.963c1.573,0.511,3.14,0.793,4.41,0.793c2.151,0,2.865-0.805,3.085-1.481l0.678-2.086
		c1.708,0.211,3.485,0.37,5.335,0.46C41.916,54.769,40.792,51.869,40.792,47.406z M8.012,22.805
		c0.246-2.494,0.976-3.984,1.342-4.284l2.751,0.271c0.075,0.092,0.158,0.26,0.236,0.501c0.156,0.482,0.294,1.251,0.314,2.265
		c0.01,0.506-0.01,1.074-0.071,1.697c-0.246,2.493-0.975,3.984-1.343,4.284l-0.499-0.049l-2.147-0.211v0l-0.104-0.01
		C8.19,26.902,7.767,25.297,8.012,22.805z M14.384,46.605c-0.475-0.076-1.88-0.985-3.363-2.974c-1.5-2.008-1.965-3.601-1.896-4.069
		l2.202-1.644c0.036,0.004,0.076,0.011,0.124,0.027c0.018,0.005,0.033,0.009,0.052,0.016c0.062,0.023,0.135,0.057,0.211,0.096
		c0.027,0.014,0.052,0.025,0.081,0.041c0.076,0.041,0.161,0.095,0.248,0.15c0.041,0.026,0.079,0.049,0.121,0.078
		c0.083,0.056,0.174,0.125,0.264,0.194c0.056,0.042,0.109,0.08,0.168,0.127c0.085,0.068,0.177,0.15,0.267,0.228
		c0.072,0.062,0.141,0.119,0.215,0.188c0.084,0.077,0.173,0.168,0.26,0.253c0.087,0.085,0.171,0.165,0.261,0.258
		c0.079,0.083,0.161,0.179,0.242,0.269c0.102,0.112,0.201,0.219,0.305,0.342c0.06,0.071,0.122,0.155,0.182,0.229
		c0.124,0.153,0.248,0.303,0.374,0.471c1.499,2.007,1.965,3.6,1.896,4.068l-1.259,0.938l0.001,0.001L14.384,46.605z M14.442,47.61
		v-1h0.001L14.442,47.61z M31.149,37.474L29.4,39.609c-0.009,0.001-0.02,0.001-0.032,0.001c-0.011,0-0.027-0.003-0.039-0.003
		c-0.532-0.013-1.532-0.41-2.688-1.169c-0.183-0.12-0.369-0.251-0.558-0.388c-0.015-0.011-0.029-0.02-0.044-0.031
		c-0.206-0.151-0.414-0.312-0.622-0.483c-1.938-1.588-2.773-3.021-2.819-3.492l1.752-2.14c0.004,0.004,0.019,0.005,0.034,0.004
		c0.701,0,2.281,0.713,3.944,2.074C30.267,35.569,31.101,37.001,31.149,37.474z M34.414,57.61c-1.066,0-2.413-0.247-3.791-0.695
		c-2.782-0.904-4.168-2.111-4.346-2.528l0.353-1.086h0l0.607-1.866c0.124-0.068,0.488-0.187,1.21-0.187
		c1.066,0,2.412,0.247,3.791,0.695c2.782,0.904,4.167,2.111,4.346,2.528l-0.43,1.313l0.003,0l-0.533,1.639
		C35.502,57.492,35.137,57.61,34.414,57.61z"/>
</g>
<g>
</g>
<g>
</g>
<g>
</g>
<g>
</g>
<g>
</g>
<g>
</g>
<g>
</g>
<g>
</g>
<g>
</g>
<g>
</g>
<g>
</g>
<g>
</g>
<g>
</g>
<g>
</g>
<g>
</g>
</svg>
