<svg height="512pt" viewBox="-26 0 512 512.00214" width="512pt" xmlns="http://www.w3.org/2000/svg"><path d="m454.519531 276.566406c-5.90625-23.070312-11.773437-42.992187-17.449219-62.261718-5.210937-17.699219-10.160156-34.527344-14.667968-52.21875 15.757812-15.269532 19.980468-39.953126 8.773437-60.007813-5.863281-10.503906-15.105469-18.3125-26.25-22.308594-7.957031-27.210937-21.292969-48.085937-39.6875-62.105469-15.785156-12.03125-34.820312-18.285156-53.582031-17.6132808-27.253906.9726568-44.714844 12.2539068-58.746094 21.3203128-9 5.816406-16.109375 10.410156-22.929687 10.410156-6.820313 0-13.929688-4.59375-22.933594-10.410156-14.027344-9.066406-31.488281-20.347656-58.742187-21.3203128-18.761719-.6757812-37.796876 5.5859378-53.582032 17.6132808-18.398437 14.019532-31.730468 34.894532-39.6875 62.105469-11.144531 3.996094-20.386718 11.804688-26.25 22.308594-11.207031 20.054687-6.984375 44.742187 8.777344 60.011719-1.273438 4.996094-2.636719 10.140625-4.132812 15.601562-1.460938 5.324219 1.667968 10.828125 6.996093 12.289063.882813.246093 1.773438.359375 2.652344.359375 4.390625 0 8.417969-2.914063 9.636719-7.355469.933594-3.402344 1.8125-6.675781 2.65625-9.882813 2.007812.707032 4.058594 1.292969 6.148437 1.734376.6875.144531 1.378907.214843 2.0625.214843 3.566407 0 6.9375-1.917969 8.726563-5.125l36.625-65.558593c2.101562-3.769532 1.550781-8.460938-1.367188-11.644532-3.4375-3.734375-7.421875-6.910156-11.84375-9.433594-5.886718-3.359374-12.261718-5.410156-18.789062-6.132812 3.59375-9.960938 7.980468-18.40625 12.902344-25.507812 27.144531-1.753907 53.414062 16.386718 73.082031 49.902343-.957031.085938-1.914063.199219-2.871094.359375-9.765625 1.636719-18.304687 7.011719-24.050781 15.132813-.054688.082031-.113282.164062-.164063.246093l-37.261719 56.15625c-11.53125 15.230469-9.824218 36.515626 4.035157 49.664063.363281.34375.753906.664063 1.164062.949219.625.4375 1.242188.867187 1.84375 1.292968-9.273437 21.160157-25.308593 59.664063-34.21875 100.363282-7.785156 35.5625-8.578125 65.796875-2.433593 90.40625-42.734376-37.183594-57.558594-82.15625-44.140626-134.597656 1.804688-7.046876 3.691407-14.128907 5.765626-21.648438 1.464843-5.324219-1.660157-10.828125-6.984376-12.296875-5.320312-1.464844-10.828124 1.65625-12.296874 6.980469-2.105469 7.640625-4.023438 14.839844-5.859376 22.007812-9.085937 35.515625-6.789062 68.621094 6.824219 98.390625 11.527344 25.207031 31.320313 48.238281 58.824219 68.464844 30.164062 22.179687 69.105469 40.945313 118.320312 56.964844.394532.15625.792969.289062 1.203126.390625 11.667968 3.777344 23.910156 7.398437 36.75 10.875.859374.234375 1.738281.351562 2.617187.351562s1.757813-.117187 2.613281-.351562c12.839844-3.476563 25.082032-7.097656 36.753906-10.875.40625-.101563.808594-.234375 1.203126-.390625 49.210937-16.019531 88.152343-34.785157 118.316406-56.964844 27.503906-20.226563 47.296875-43.257813 58.824218-68.464844 13.613282-29.769531 15.910157-62.875 6.824219-98.390625zm-40.800781-164.734375c7.425781 13.292969 3.550781 29.96875-8.484375 38.605469-.019531.015625-.039063.027344-.054687.039062-.800782.574219-1.636719 1.109376-2.507813 1.605469-.527344.300781-1.0625.585938-1.605469.851563l-28.613281-51.226563c.550781-.367187 1.117187-.714843 1.699219-1.046875 6.71875-3.835937 14.519531-4.804687 21.953125-2.734375 7.515625 2.089844 13.769531 7.027344 17.613281 13.90625zm-326.207031-10.125-28.617188 51.226563c-.539062-.265625-1.074219-.550782-1.601562-.851563-.871094-.496093-1.710938-1.035156-2.511719-1.605469-.015625-.011718-.03125-.023437-.042969-.035156-12.042969-8.632812-15.917969-25.3125-8.492187-38.609375 3.84375-6.875 10.097656-11.816406 17.613281-13.90625 7.4375-2.070312 15.230469-1.097656 21.953125 2.734375.578125.332032 1.144531.679688 1.699219 1.046875zm27.117187 83.660157c.148438-.1875.289063-.386719.421875-.585938l37.351563-56.292969c2.640625-3.679687 6.523437-6.109375 10.949218-6.851562 4.433594-.742188 8.894532.300781 12.5625 2.9375.09375.070312.195313.128906.292969.191406.097657.066406.195313.132813.296875.195313.070313.042968.136719.089843.207032.132812 1.421874.828125 3.128906 1.875 4.933593 2.984375 12.085938 7.417969 30.355469 18.628906 48.335938 18.628906s36.25-11.210937 48.335937-18.628906c1.804688-1.109375 3.511719-2.15625 4.933594-2.984375.070312-.042969.136719-.089844.207031-.136719.101563-.0625.199219-.125.296875-.191406.097656-.0625.199219-.121094.292969-.191406 3.667969-2.636719 8.125-3.679688 12.5625-2.9375 4.425781.742187 8.308594 3.171875 10.949219 6.851562l37.351562 56.292969c.132813.203125.273438.398438.421875.585938 5.261719 6.808593 4.664063 16.675781-1.273437 22.769531-2.820313 1.976562-5.449219 3.863281-7.90625 5.675781-.042969.027344-.082032.058594-.125.089844-18.503906 13.65625-27.042969 23.054687-31.332032 33.945312-5.234374 13.292969-2.824218 26.273438.820313 45.917969 1.929687 10.386719 4.328125 23.316406 6.160156 39.515625.046875.390625.113281.777344.203125 1.160156 1.417969 6.058594-.488281 12.460938-4.976562 16.714844-.210938.199219-.410156.40625-.601563.621094l-38.296875 43.121094c-3.207031 3.621093-7.796875 5.699218-12.589844 5.703124h-50.863281c-4.796875-.003906-9.386719-2.082031-12.605469-5.710937l-38.285156-43.113281c-.191406-.214844-.390625-.421875-.601562-.621094-4.488282-4.25-6.398438-10.65625-4.976563-16.714844.089844-.382812.15625-.769531.199219-1.160156 1.835938-16.199219 4.234375-29.125 6.164062-39.515625 3.644532-19.644531 6.054688-32.625.820313-45.914063-4.292969-10.894531-12.828125-20.292968-31.332031-33.949218-.042969-.03125-.082032-.058594-.125-.089844-2.457032-1.8125-5.085938-3.699219-7.910156-5.671875-5.933594-6.097656-6.53125-15.964844-1.269532-22.773437zm7.433594 52.449218c8.144531 6.859375 12.574219 12.234375 14.59375 17.363282 3.132812 7.953124 1.25 18.109374-1.875 34.9375-1.964844 10.582031-4.40625 23.726562-6.308594 40.375-2.734375 12.621093 1.253906 25.882812 10.496094 34.863281l15.613281 17.582031c-5.699219 30.628906-8.164062 59.070312 7.148438 86.230469-22.792969-9.023438-42.855469-18.832031-60.164063-29.417969-27.886718-36.761719-20.992187-104.644531 20.496094-201.933594zm107.917969 253.820313c-11.070313-3.035157-21.6875-6.203125-31.886719-9.492188-27.550781-24.730469-30.527344-49.78125-26.417969-79.960937l5.304688 5.972656c7 7.90625 17.042969 12.4375 27.566406 12.445312h50.871094c10.519531-.003906 20.5625-4.539062 27.550781-12.433593l5.316406-5.984375c4.109375 30.179687 1.132813 55.230468-26.417968 79.960937-10.199219 3.289063-20.816407 6.457031-31.886719 9.492188zm160.980469-75.476563c3.214843-12.839844 4.570312-27.183594 3.996093-42.996094-.203125-5.515624-4.800781-9.824218-10.359375-9.628906-5.515625.203125-9.828125 4.835938-9.628906 10.359375 1.011719 27.875-4.570312 50.003907-16.554688 65.847657-17.316406 10.589843-37.378906 20.398437-60.183593 29.425781 15.3125-27.160157 12.851562-55.601563 7.148437-86.230469l15.613282-17.582031c9.242187-8.976563 13.234374-22.242188 10.5-34.863281-1.90625-16.648438-4.347657-29.792969-6.3125-40.375-3.121094-16.828126-5.007813-26.984376-1.875-34.9375 2.023437-5.136719 6.460937-10.515626 14.628906-17.390626 7.53125 17.476563 15.578125 37.621094 22.535156 60.082032 1.328125 4.289062 5.28125 7.042968 9.550781 7.042968.980469 0 1.976563-.144531 2.960938-.449218 5.277343-1.636719 8.226562-7.238282 6.59375-12.511719-7.835938-25.292969-16.941407-47.601563-25.234375-66.59375.609375-.429687 1.226562-.863281 1.851562-1.300781.410156-.285156.800782-.601563 1.164063-.945313 13.859375-13.148437 15.566406-34.4375 4.035156-49.667969l-37.257813-56.152343c-.054687-.085938-.109374-.164063-.167968-.246094-5.746094-8.125-14.285156-13.5-24.050782-15.132813-.949218-.160156-1.902343-.273437-2.851562-.359374.375-.636719.738281-1.292969 1.117188-1.917969 2.859374-4.726563 1.347656-10.875-3.378907-13.734375-4.730469-2.859375-10.875-1.34375-13.730469 3.382812-3.820312 6.3125-7.378906 13.097656-10.640624 20.171875-.832032.503907-1.691407 1.035157-2.574219 1.578125-10.167969 6.242188-25.539063 15.671875-37.875 15.671875-12.335938 0-27.703125-9.429687-37.875-15.671875-.875-.539062-1.730469-1.066406-2.554688-1.566406-11.183593-24.257812-25.679687-44.109375-42.070312-57.523438-12.34375-10.09375-25.761719-16.53125-39.65625-19.128906 12.894531-9.535156 27.074219-13.230468 39.765625-12.777344 21.746094.777344 36.015625 9.996094 48.605468 18.132813 10.832032 7 21.066407 13.613281 33.785157 13.613281s22.953125-6.613281 33.789062-13.613281c12.589844-8.136719 26.855469-17.355469 48.601563-18.132813 12.675781-.449218 26.839844 3.238282 39.726562 12.75-1.101562.207032-2.199218.433594-3.292968.6875-5.378907 1.246094-8.726563 6.621094-7.480469 12 1.070312 4.621094 5.183593 7.742188 9.730469 7.742188.75 0 1.511718-.082031 2.269531-.261719 5.484375-1.269531 11.117187-1.699219 16.792969-1.3125 4.925781 7.097657 9.316406 15.550781 12.914062 25.515625-6.527344.722656-12.902344 2.773438-18.789062 6.132813-4.421876 2.523437-8.40625 5.695312-11.84375 9.433593-2.921876 3.179688-3.472657 7.875-1.367188 11.644532l36.621094 65.558594c1.792968 3.207031 5.160156 5.125 8.730468 5.125.683594 0 1.375-.070313 2.0625-.214844 2.089844-.441406 4.144532-1.027344 6.152344-1.738282 4.15625 15.8125 8.617188 30.988282 13.289063 46.855469 5.625 19.101563 11.441406 38.851563 17.257812 61.570313 13.421875 52.457031-1.417969 97.441406-44.183593 134.632812zm0 0"/><path d="m185.046875 302.253906c7.714844 17.242188 22.136719 28.582032 32.894531 35.0625.664063.410156 1.347656.769532 2.039063 1.105469v13.414063l-15.070313 4.082031c-5.332031 1.441406-8.484375 6.933593-7.039062 12.265625 1.441406 5.332031 6.933594 8.480468 12.265625 7.039062l19.84375-5.375 19.84375 5.375c.875.234375 1.753906.347656 2.621093.347656 4.40625 0 8.441407-2.929687 9.648438-7.386718 1.441406-5.332032-1.710938-10.824219-7.039062-12.265625l-15.074219-4.082031v-13.402344c.605469-.292969 1.207031-.605469 1.792969-.953125 8.730468-5.226563 32.011718-22.796875 34.886718-41.117188 1.980469-12.613281-6.601562-24.507812-19.136718-26.519531-17.917969-2.871094-36.066407-2.929688-53.945313-.171875-2.421875.265625-4.777344.914063-7.003906 1.929687-11.550781 5.261719-16.722657 19.003907-11.527344 30.652344zm19.816406-12.453125c.308594-.136719.625-.222656.945313-.253906.195312-.019531.394531-.042969.589844-.074219 7.816406-1.214844 15.695312-1.824218 23.578124-1.824218 8.140626 0 16.289063.648437 24.382813 1.945312 1.679687.269531 2.820313 1.914062 2.546875 3.667969-1.15625 7.367187-14.605469 20.59375-25.390625 27.050781-1.441406.859375-2.734375.195312-3.097656-.027344-.039063-.023437-.074219-.046875-.113281-.070312-8.308594-5.003906-19.394532-13.597656-24.996094-26.117188-.734375-1.644531-.035156-3.570312 1.554687-4.296875zm0 0"/><path d="m164.675781 219.0625 17.914063 10.453125c1.585937.925781 3.320312 1.363281 5.03125 1.363281 3.4375 0 6.789062-1.773437 8.644531-4.960937 2.785156-4.769531 1.171875-10.894531-3.597656-13.675781l-17.914063-10.453126c-4.769531-2.785156-10.894531-1.171874-13.675781 3.597657-2.785156 4.769531-1.171875 10.894531 3.597656 13.675781zm0 0"/><path d="m272.34375 230.878906c1.710938 0 3.445312-.4375 5.027344-1.363281l17.917968-10.453125c4.769532-2.78125 6.378907-8.90625 3.597657-13.675781s-8.90625-6.378907-13.679688-3.597657l-17.914062 10.453126c-4.769531 2.78125-6.378907 8.90625-3.597657 13.675781 1.859376 3.1875 5.207032 4.960937 8.648438 4.960937zm0 0"/><path d="m28.632812 228.195312c1.113282.398438 2.246094.585938 3.363282.585938 4.105468 0 7.957031-2.550781 9.417968-6.636719l.003907-.007812c1.855469-5.203125-.855469-10.917969-6.058594-12.777344-5.199219-1.855469-10.921875.855469-12.78125 6.058594-1.855469 5.199219.855469 10.921875 6.054687 12.777343zm0 0"/><path d="m389.792969 331.574219c-1.15625-5.398438-6.472657-8.835938-11.871094-7.679688-5.402344 1.15625-8.839844 6.476563-7.683594 11.875 1.007813 4.695313 5.152344 7.910157 9.769531 7.910157.691407 0 1.398438-.074219 2.101563-.226563 5.402344-1.15625 8.839844-6.472656 7.683594-11.871094zm0 0"/><path d="m309.332031 54.664062-.003906.003907c-4.417969 3.316406-5.3125 9.582031-2 14 1.964844 2.617187 4.96875 4 8.007813 4 2.089843 0 4.195312-.652344 5.996093-2.003907 4.417969-3.3125 5.3125-9.582031 2-14-3.3125-4.417968-9.582031-5.3125-14-2zm0 0"/></svg>