<svg id="Capa_1" enable-background="new 0 0 511.951 511.951" height="512" viewBox="0 0 511.951 511.951" width="512" xmlns="http://www.w3.org/2000/svg"><path d="m77.568 355.789c-7.637 4.301-15.885 4.666-15.967 4.669l.12-.003.655 29.993c1.481-.033 14.864-.525 28.526-7.761 19.225-10.182 29.813-28.84 29.813-52.537h-30c0 12.441-4.178 20.588-13.147 25.639z"/><path d="m221.231 212.662 23.811 12.148-24.233 13.353 14.479 26.275 73.767-40.647-74.19-37.852z"/><path d="m431.344 81.316-.165-.127c-21.805-16.564-48.894-25.687-76.277-25.687h-20.223c-8.9-13.782-19.296-23.804-28.933-30.966-25.51-18.958-51.274-22.322-52.359-22.456l-16.839-2.08v16.967c0 17.606 1.103 33.083 2.938 46.667h-67.384l27.825 74.719c-1.897 1.441-3.733 2.981-5.481 4.643l-194.209 184.656 10.875 147.648h57.307c19.187 0 37.661-8.081 50.684-22.171l9.299-10.062c4.566-4.94 10.366-8.633 16.772-10.681l90.412-32.347c36.816 10.021 73.396 10.888 109.012 2.604 7.53 29.109 8.784 50.287 8.784 94.308v15h158.332v-367.803zm-142.469-31.929c22.134 16.94 34.732 42.434 37.56 75.914h-34.211c-6.667-8.523-22.026-33.777-25.124-88.319 6.526 2.657 14.197 6.606 21.775 12.405zm-73.587 44.247h30.076c3.451 13.02 7.557 23.441 11.644 31.667h-18.272c-3.818 0-7.588.349-11.282 1.003zm266.426 388.317h-98.396c-.416-43.048-3.051-65.397-13.889-101.917l-4.307-14.513-14.473 4.44c-36.073 11.067-73.546 11.049-111.377-.053l-4.683-1.374-98.811 35.362c-11.229 3.639-21.392 10.139-29.407 18.809l-9.3 10.062c-7.362 7.965-17.805 12.534-28.652 12.534h-29.435l-7.785-105.691 183.92-174.873c6.399-6.085 14.786-9.437 23.616-9.437h94.988c24.437 0 41.638 5.337 55.699 17.299l92.291 89.692v219.66zm0-261.493-71.723-69.703-.667-.611c-17.207-14.814-36.094-20.908-52.72-23.331-1.016-15.679-3.777-29.372-7.714-41.311h6.012c20.833 0 41.444 6.929 58.047 19.513l68.765 53.758z"/></svg>