<svg height="512" viewBox="0 0 192 192" width="512" xmlns="http://www.w3.org/2000/svg"><g id="_28-radio" data-name="28-radio"><path d="m184 48h-30.357l-110.492-47.354-6.3 14.708 76.173 32.646h-33.024v-8h-16v8h-8v-8h-16v8h-8v-8h-16v8h-8a8 8 0 0 0 -8 8v128a8 8 0 0 0 8 8h176a8 8 0 0 0 8-8v-128a8 8 0 0 0 -8-8zm-8 128h-160v-112h160z"/><path d="m64 168a40 40 0 1 0 -40-40 40.045 40.045 0 0 0 40 40zm0-64a24 24 0 1 1 -24 24 24.028 24.028 0 0 1 24-24z"/><path d="m120 96h40v16h-40z"/><path d="m120 120h40v16h-40z"/><path d="m120 144h40v16h-40z"/><path d="m80 72h80v16h-80z"/></g></svg>