<svg id="outline" height="512" viewBox="0 0 512 512" width="512" xmlns="http://www.w3.org/2000/svg"><path d="m487.15625 358.63281-7.15625-3.57812v-46.10938a15.89785 15.89785 0 0 0 -8.84375-14.3125l-40.46484-20.23437-37.32813-126.90625a16.08259 16.08259 0 0 0 -15.34766-11.49219h-194.01562v-19.46875a16.08445 16.08445 0 0 0 -7.76562-13.71875l-34.19922-20.52344a15.95266 15.95266 0 0 0 -8.25-2.28906h-57.50391a15.9646 15.9646 0 0 0 -13.3125 7.125l-12.28127 18.42188a15.95312 15.95312 0 0 0 -2.68748 8.875v21.57812h-16a16.01833 16.01833 0 0 0 -16 16v240a16.01833 16.01833 0 0 0 16 16h51.39062a39.92181 39.92181 0 0 0 73.21876 0h206.78124a39.92181 39.92181 0 0 0 73.21876 0h43.39062a16.01833 16.01833 0 0 0 16-16v-19.05469a15.89785 15.89785 0 0 0 -8.84375-14.3125zm-23.15625-38.63281h-16v-19.05566l16 8.001zm-88-104h20.83643l16.47119 56h-37.30762zm-312-101.57812 12.28125-18.42188h57.5l34.21875 20.53125v19.46875h-104zm56 301.57812a24 24 0 1 1 24-24 24.02624 24.02624 0 0 1 -24 24zm280 0a24 24 0 1 1 24-24 24.02624 24.02624 0 0 1 -24 24zm80-24h-40a40 40 0 0 0 -80 0h-200a40 40 0 0 0 -80 0h-48v-24h24v-16h-24v-200h346.01172l14.11865 48h-88.13037a16.01833 16.01833 0 0 0 -16 16v56a16.01833 16.01833 0 0 0 16 16h118.41992c.37744.23.71778.51221 1.11524.71094l8.46484 4.23291v27.05615a16.01833 16.01833 0 0 0 16 16h16v19.05469a15.89785 15.89785 0 0 0 8.84375 14.3125l7.15625 3.57812zm-120-176v56h-56v-56z"/><circle cx="120" cy="392" r="8"/><circle cx="400" cy="392" r="8"/><path d="m240 168h-176a16.01833 16.01833 0 0 0 -16 16v136a16.01833 16.01833 0 0 0 16 16h176a16.01833 16.01833 0 0 0 16-16v-136a16.01833 16.01833 0 0 0 -16-16zm0 56h-48v-40h48zm-64 0h-48v-40h48zm-112-40h48v40h-48zm0 136v-80h176l.01172 80z"/><path d="m80 256h16v16h-16z"/><path d="m112 256h16v16h-16z"/><path d="m144 256h16v16h-16z"/><path d="m176 256h16v16h-16z"/><path d="m208 256h16v16h-16z"/><path d="m80 288h16v16h-16z"/><path d="m112 288h16v16h-16z"/><path d="m144 288h16v16h-16z"/><path d="m176 288h16v16h-16z"/><path d="m208 288h16v16h-16z"/></svg>