<svg id="Layer_1" enable-background="new 0 0 512 512" height="512" viewBox="0 0 512 512" width="512" xmlns="http://www.w3.org/2000/svg"><path d="m374.663 49.427-7.109.609c-4.127.354-7.186 3.986-6.833 8.113.354 4.126 3.98 7.181 8.113 6.833l7.111-.609c7.158-.615 14.009 1.724 19.305 6.585 5.32 4.882 8.25 11.553 8.25 18.782v90.46c0 14.701-12.303 26.239-26.789 25.421l-55.363-3.038-43.019-71.68 32.689-60.987 25.779-2.204c4.127-.353 7.187-3.984 6.834-8.111s-3.994-7.188-8.111-6.834l-18.65 1.595c.376-8.327-3.916-16.608-11.863-20.866-5.477-2.928-11.634-3.357-17.153-1.686-.163-.506-.36-1.002-.591-1.482l-11.516-23.844c-1.913-3.939-5.974-6.484-10.347-6.484h-28.98c-4.372 0-8.433 2.544-10.354 6.498l-11.513 23.836c-.748 1.552-1.144 3.28-1.144 4.996v1.231c-5.607-1.213-11.374-.263-16.318 2.703-5.153 3.092-8.793 8.007-10.25 13.837-1.037 4.151-.879 8.411.413 12.381l-56.807 4.864c-21.063 1.809-36.947 19.139-36.947 40.314v17.212c0 4.142 3.358 7.5 7.5 7.5s7.5-3.358 7.5-7.5v-17.212c0-13.326 9.987-24.231 23.229-25.368l63.484-5.436 31.388 52.3-33.956 63.35-60.135-3.305c-13.463-.741-24.009-11.907-24.009-25.421v-6.163c0-4.142-3.358-7.5-7.5-7.5s-7.5 3.358-7.5 7.5v6.163c0 21.475 16.772 39.221 38.185 40.399l53.899 2.962c-2.362 9.498 1.75 20.145 11.224 25.221 5.135 2.75 11.002 3.404 16.602 1.861v179.243c0 4.142 3.358 7.5 7.5 7.5s7.5-3.358 7.5-7.5v-192.429l6.001-11.196 38.999 2.145v260.879l-10.209 21.135h-24.584l-10.208-21.134v-27.622c0-4.142-3.358-7.5-7.5-7.5s-7.5 3.358-7.5 7.5v28.426c0 1.716.396 3.444 1.146 5.002l11.517 23.846c1.913 3.938 5.975 6.482 10.346 6.482h28.98c4.373 0 8.435-2.545 10.354-6.498l11.513-23.836c.749-1.553 1.144-3.281 1.144-4.996v-243.511c7.218 6.417 17.971 7.626 26.54 2.485 6.422-3.855 10.373-10.484 10.877-17.794l50.06 2.748c23.223 1.27 42.613-17.18 42.613-40.398v-90.46c0-23.665-20.258-42.334-43.837-40.313zm-76.734-2.706c3.64 1.949 5.03 6.489 3.061 10.156-10.077 18.801-20.761 38.733-31.649 59.047l-8.99-14.98 27.072-50.511c.068-.118.132-.239.194-.361l.156-.29c1.948-3.641 6.505-5.013 10.156-3.061zm-52.82 28.828 12.401-1.06-6.15 11.474zm-6.491-60.549h24.584l10.208 21.135v8.688l-7.444 13.889-29.451 2.516-8.105-13.505v-11.59zm-34.727 207.139c-3.635-1.947-5.033-6.478-3.061-10.155l34.76-64.848 8.99 14.98c-4.993 9.315-21.61 40.318-30.182 56.31-2.715 4.738-7.027 5.577-10.507 3.713zm49.679-45.044 13.515 22.519-24.853-1.367zm53.661 45.688c-3.546 2.129-8.163.974-10.291-2.571-.833-1.388-38.125-63.532-94.701-157.795-2.132-3.554-.983-8.158 2.571-10.291 3.176-1.907 7.318-1.398 10.12 2.3.148.225-1.16-1.942 11.016 18.342.068.121.14.24.214.357l83.642 139.368c2.133 3.552.983 8.157-2.571 10.29z"/><path d="m365.003 183.5c4.142 0 7.5-3.358 7.5-7.5v-82c0-4.142-3.358-7.5-7.5-7.5s-7.5 3.358-7.5 7.5v82c0 4.142 3.358 7.5 7.5 7.5z"/></svg>