<svg id="Capa_1" enable-background="new 0 0 512 512" height="512" viewBox="0 0 512 512" width="512" xmlns="http://www.w3.org/2000/svg"><path d="m509.501 25.071c-1.589-1.422-3.703-2.103-5.832-1.864l-52.466 5.848c-4.116.458-7.082 4.168-6.623 8.285s4.167 7.088 8.286 6.623l44.134-4.919v25.188l-109.563 8.68c4.727-7.549 7.799-15.317 9.743-22.743l23.9-2.664c4.116-.458 7.082-4.168 6.623-8.285-.459-4.116-4.156-7.085-8.286-6.623l-19.587 2.183c1.105-12.477-.426-22.305-1.086-25.747-.735-3.836-3.69-6.79-7.524-7.524-7.763-1.491-48.006-7.414-77.875 22.453-4.688 4.688-7.976 10.292-9.813 16.641l-166.882-12.391-59.11-27.511c-.991-.462-2.071-.701-3.165-.701h-36.563c-3.278 0-6.175 2.128-7.157 5.254-.981 3.127.182 6.529 2.871 8.401l73.418 51.104-4.489 4.489c-4.429-1.922-11.308-4.444-19.112-5.655-15.611-2.423-28.888 1.326-38.398 10.835-29.862 29.862-23.95 70.098-22.461 77.861.735 3.836 3.69 6.79 7.524 7.524 25.013 4.803 56.323-.903 77.874-22.453 9.51-9.509 13.257-22.787 10.834-38.398-1.211-7.802-3.733-14.678-5.654-19.106l8.33-8.329 111.092 11.553v68.19h-54.763c-22.489 0-44.143 6.698-62.622 19.369-3.417 2.343-4.287 7.011-1.944 10.427 2.344 3.416 7.012 4.285 10.427 1.944 15.971-10.952 34.691-16.74 54.139-16.74h20.23c-29.982 18.207-50.053 51.173-50.053 88.738v83.75c0 37.567 20.073 70.535 50.058 88.742h-20.235c-52.85 0-95.845-42.994-95.845-95.84v-69.56c0-21.523 6.968-41.854 20.153-58.794 2.544-3.269 1.956-7.981-1.313-10.525s-7.982-1.957-10.526 1.313c-15.253 19.598-23.315 43.114-23.315 68.006v69.56c0 61.117 49.726 110.84 110.846 110.84h156.529c15.242 0 30.159-3.099 43.949-9.06-3.128 16.684-.986 30.665-.17 34.915.734 3.833 3.687 6.786 7.523 7.524 25.015 4.799 56.322-.903 77.875-22.454 9.509-9.509 13.256-22.788 10.833-38.399-1.211-7.8-3.733-14.676-5.654-19.105l12.515-12.514c2.929-2.929 2.929-7.678 0-10.606-2.93-2.929-7.678-2.929-10.608 0l-12.512 12.512c-4.43-1.922-11.309-4.444-19.112-5.655-1.504-.233-2.987-.409-4.446-.528 7.001-14.756 10.655-30.93 10.655-47.469v-69.561c0-61.112-49.726-110.83-110.846-110.83h-54.763v-19.912l39.286-39.284c18.338 7.956 39.858 10.03 55.204-3.051l6.923-.549 18.009 18.007c-8.595 19.809-9.956 42.369 5.181 57.506 21.387 21.385 52.592 27.309 77.866 22.46 3.836-.735 6.789-3.688 7.525-7.522 1.49-7.764 7.414-48.004-22.454-77.87-9.51-9.51-22.795-13.255-38.401-10.832-7.802 1.211-14.678 3.732-19.107 5.654l-8.96-8.959 104.534-8.281c3.9-.309 6.908-3.564 6.908-7.477v-40.5c-.003-2.134-.912-4.166-2.502-5.589zm-53.083 86.591c21.343 21.341 20.358 49.465 18.927 60.65-11.184 1.428-39.307 2.41-60.647-18.93-10.157-10.156-7.478-25.491-4.188-35.3l40.124 40.121c2.93 2.929 7.678 2.929 10.608 0 2.929-2.929 2.929-7.678 0-10.606l-40.122-40.12c9.808-3.29 25.143-5.969 35.298 4.185zm-383.704-96.662 58.848 27.389c2.351 1.094-7.613-.252 170.277 13.128.267 6.766 1.784 13.621 4.05 20.115-10.44-1.086-169.636-17.641-180.157-18.735-.052-.055-.104-.109-.157-.162-1.856-1.855-4.441-2.535-6.832-2.04l-57.028-39.695zm24.561 111.754c-21.341 21.34-49.467 20.355-60.652 18.924-1.429-11.183-2.409-39.305 18.931-60.644 10.155-10.155 25.491-7.478 35.301-4.187l-40.128 40.126c-2.929 2.929-2.929 7.678 0 10.606 2.93 2.929 7.678 2.929 10.608 0l40.126-40.124c3.291 9.81 5.969 25.145-4.186 35.299zm349.123 270.159-40.128 40.125c-2.929 2.929-2.929 7.678 0 10.606 2.93 2.929 7.678 2.929 10.608 0l40.126-40.124c3.291 9.809 5.969 25.144-4.186 35.298-21.343 21.342-49.471 20.355-60.653 18.924-1.429-11.182-2.411-39.303 18.932-60.644 10.153-10.153 25.491-7.475 35.301-4.185zm-16.303-134.813v69.56c0 17.422-4.686 34.37-13.578 49.201-6.097 1.87-11.492 5.095-16.029 9.632-7.176 7.176-12.286 14.95-15.889 22.729-15.108 9.347-32.468 14.278-50.35 14.278h-20.235c29.985-18.207 50.058-51.174 50.058-88.742v-6.795c0-4.142-3.358-7.5-7.5-7.5s-7.5 3.358-7.5 7.5v6.795c0 48.932-39.812 88.742-88.747 88.742h-8.678c-48.935 0-88.747-39.81-88.747-88.742v-83.75c0-48.685 39.411-88.339 88.007-88.738h10.159c48.596.399 88.007 40.053 88.007 88.738v44.861c0 4.142 3.358 7.5 7.5 7.5s7.5-3.358 7.5-7.5v-44.861c0-37.565-20.071-70.531-50.053-88.738h20.23c52.849 0 95.845 42.989 95.845 95.83zm-182.611-110.83v-66.63l17.001 1.768v64.862c-16.246-.009-9.204 0-17.001 0zm32.002-63.302 20.089 2.089-20.089 20.088zm50.888-7.494 40.128-40.126c2.929-2.929 2.929-7.678 0-10.606-2.93-2.929-7.678-2.929-10.608 0l-40.124 40.122c-3.29-9.811-5.967-25.146 4.185-35.297 21.342-21.342 49.469-20.354 60.653-18.924 2.766 21.641-2.841 44.554-18.932 60.644-.008.008-.016.015-.023.023-.067.064-.133.129-.198.195-10.159 9.898-25.346 7.234-35.081 3.969z"/><path d="m92.049 486.684c1.922-4.43 4.445-11.309 5.655-19.112 2.421-15.608-1.326-28.885-10.836-38.394-29.866-29.864-70.104-23.948-77.872-22.459-3.828.737-6.779 3.687-7.519 7.523-1.49 7.764-7.408 48.008 22.454 77.869 15.191 15.189 37.8 13.728 57.508 5.179l12.515 12.514c2.93 2.929 7.678 2.929 10.608 0 2.929-2.929 2.929-7.678 0-10.606zm-57.51-5.18c-21.342-21.341-20.356-49.474-18.926-60.649 11.184-1.43 39.306-2.409 60.646 18.93h.001c10.155 10.155 7.475 25.495 4.188 35.3l-40.128-40.126c-2.93-2.929-7.678-2.929-10.608 0-2.929 2.929-2.929 7.678 0 10.606l40.126 40.124c-9.81 3.29-25.145 5.969-35.299-4.185z"/></svg>