<svg id="Layer_1" height="512" viewBox="0 0 128 128" width="512" xmlns="http://www.w3.org/2000/svg" data-name="Layer 1"><path d="m111.063 50.778a1.75 1.75 0 0 0 -.643-1.02l-3.866-2.979a1.75 1.75 0 0 0 -2.137 0l-1.629 1.256c.078-.958.128-1.917.128-2.873a35.9 35.9 0 0 0 -5.161-18.5 1.721 1.721 0 0 0 -.093-.2c-.172-.284-.362-.557-.543-.836-.106-.164-.2-.335-.307-.5-.023-.034-.052-.061-.076-.093a38.365 38.365 0 0 0 -9.447-9.712c-.007-.006-.013-.013-.021-.018q-.814-.582-1.661-1.121c-.027-.017-.052-.037-.079-.054s-.039-.018-.057-.029a40.045 40.045 0 0 0 -12.534-5.177 8.937 8.937 0 0 0 -17.873-.009c-17.457 3.925-29.98 18.949-29.98 36.252 0 .961.051 1.925.129 2.888l-1.649-1.271a1.748 1.748 0 0 0 -2.137 0l-3.844 2.965a1.75 1.75 0 0 0 -.642 1.019 96.829 96.829 0 0 0 -2.127 16.85 70.053 70.053 0 0 0 2.238 22.1 59.683 59.683 0 0 0 6.835 16.422 45.15 45.15 0 0 0 22.72 18.9 50.359 50.359 0 0 0 17.393 2.962c29.458 0 49.25-23.007 49.25-57.25a95.428 95.428 0 0 0 -2.187-19.972zm-52.501-41.84a5.437 5.437 0 1 1 10.875 0v3.026c0 3.262-3.314 5.523-5.437 7.593-2.123-2.069-5.438-4.335-5.438-7.593zm-3.483 3.562c.285 4.689 4.6 7.733 7.7 10.753a1.749 1.749 0 0 0 2.443 0c3.1-3.02 7.412-6.061 7.7-10.751a36.436 36.436 0 0 1 10.827 4.652 34.86 34.86 0 0 1 10.442 10.387 32.292 32.292 0 0 1 4.682 23.516l-3.761 2.9-9.312-7.176a1.747 1.747 0 0 0 -2.137 0l-9.303 7.176-9.3-7.176a1.748 1.748 0 0 0 -2.137 0l-9.3 7.176-9.305-7.176a1.748 1.748 0 0 0 -2.138 0l-9.3 7.176-3.74-2.885a32.405 32.405 0 0 1 -.546-5.907c-.011-15.413 11.012-28.842 26.485-32.665zm8.921 112a43.767 43.767 0 0 1 -26.619-8.5c-8.263-6.287-13.427-15.4-16.4-25.206a70.664 70.664 0 0 1 -2.681-22.763 92.976 92.976 0 0 1 1.93-15.907l2.27-1.747 7.02 5.413 2.28 1.763a1.692 1.692 0 0 0 .264.141 1.73 1.73 0 0 0 1.873-.141l9.3-7.176 9.305 7.176a1.748 1.748 0 0 0 2.138 0l9.3-7.176 9.3 7.176a1.747 1.747 0 0 0 2.137 0l9.306-7.176 9.31 7.176a1.747 1.747 0 0 0 2.137 0l9.307-7.176 2.286 1.762a91.669 91.669 0 0 1 1.987 18.611c0 26.75-14.15 53.75-45.75 53.75z"/><path d="m53.923 36.954a1.75 1.75 0 0 0 .974 1.283l8.353 3.969a1.754 1.754 0 0 0 1.5 0l8.35-3.969a1.75 1.75 0 0 0 .486-2.818l-8.353-8.353a1.749 1.749 0 0 0 -2.475 0l-8.348 8.353a1.75 1.75 0 0 0 -.487 1.535zm10.077-6.176 5.361 5.361-5.361 2.549-5.361-2.548z"/><path d="m77.812 32.375a5 5 0 1 0 -5-5 5.006 5.006 0 0 0 5 5zm0-6.5a1.5 1.5 0 1 1 -1.5 1.5 1.5 1.5 0 0 1 1.5-1.5z"/><path d="m50.187 32.375a5 5 0 1 0 -5-5 5.006 5.006 0 0 0 5 5zm0-6.5a1.5 1.5 0 1 1 -1.5 1.5 1.5 1.5 0 0 1 1.5-1.5z"/></svg>