<svg id="Solid" height="512" viewBox="0 0 512 512" width="512" xmlns="http://www.w3.org/2000/svg"><circle cx="344" cy="200" r="8"/><circle cx="240" cy="224" r="8"/><path d="m177.373 369.373h29.254v29.254h-29.254z" transform="matrix(.707 -.707 .707 .707 -215.294 248.235)"/><path d="m305.373 345.373h29.255v29.255h-29.255z" transform="matrix(.707 -.707 .707 .707 -160.833 331.721)"/><circle cx="272" cy="152" r="8"/><path d="m248 416h32v32h-32z"/><path d="m240 464h-99.765c2.907 9.342 10.725 16 19.742 16h192.046c9.018 0 16.835-6.658 19.742-16z"/><circle cx="176" cy="176" r="8"/><path d="m396.49 80 2.995-48h-286.97l2.995 48z"/><path d="m116.508 96 21.964 352h93.528v-40a8 8 0 0 1 8-8h48a8 8 0 0 1 8 8v40h77.528l21.964-352zm235.452 15.92a8.04 8.04 0 1 1 -8.04 8.04 8.069 8.069 0 0 1 8.04-8.04zm-79.96 16.08a24 24 0 1 1 -24 24 24.027 24.027 0 0 1 24-24zm-64.04-16.08a8.04 8.04 0 1 1 -8.04 8.04 8.069 8.069 0 0 1 8.04-8.04zm-31.96 40.08a24 24 0 1 1 -24 24 24.027 24.027 0 0 1 24-24zm24 143.96a8.04 8.04 0 1 1 -8.04-8.04 8.069 8.069 0 0 1 8.04 8.04zm-56.08-72a8.04 8.04 0 1 1 8.04 8.04 8.069 8.069 0 0 1 -8.04-8.04zm85.737 165.7-32 32a8 8 0 0 1 -11.314 0l-32-32a8 8 0 0 1 0-11.314l32-32a8 8 0 0 1 11.314 0l32 32a8 8 0 0 1 0 11.311zm10.343-141.66a24 24 0 1 1 24-24 24.027 24.027 0 0 1 -24 24zm31.96 32a8.04 8.04 0 1 1 8.04-8.04 8.069 8.069 0 0 1 -8.04 8.04zm85.7 85.657-32 32a8 8 0 0 1 -11.314 0l-32-32a8 8 0 0 1 0-11.314l32-32a8 8 0 0 1 11.314 0l32 32a8 8 0 0 1 -.003 11.314zm-21.74-117.697a8.04 8.04 0 1 1 8.04 8.04 8.069 8.069 0 0 1 -8.04-8.04zm32.08-47.96a24 24 0 1 1 -24-24 24.027 24.027 0 0 1 24 24z"/></svg>