<svg height="448pt" viewBox="-24 0 448 448" width="448pt" xmlns="http://www.w3.org/2000/svg"><path d="m219.066406 120h-38.113281l19.054687 38.113281zm0 0"/><path d="m296.007812 56c0 13.253906-10.746093 24-24 24-13.253906 0-24-10.746094-24-24s10.746094-24 24-24c13.253907 0 24 10.746094 24 24zm0 0"/><path d="m338.167969 27.648438 32.242187-27.648438h-53.25c9.144532 7.375 16.355469 16.863281 21.007813 27.648438zm0 0"/><path d="m200.007812 296c101.457032 0 184-68.183594 184-152 .03125-11.617188-1.605468-23.175781-4.855468-34.328125-9.007813-19.226563-20.875-36.976563-35.199219-52.648437-.332031 25.253906-13.886719 48.484374-35.710937 61.199218-21.824219 12.714844-48.714844 13.046875-70.847657.882813l-30.1875 60.46875c-1.351562 2.71875-4.125 4.433593-7.15625 4.433593-3.035156 0-5.808593-1.714843-7.160156-4.433593l-30.234375-60.46875c-22.035156 12.132812-48.8125 11.867187-70.605469-.703125-21.789062-12.566406-35.429687-35.613282-35.960937-60.761719-13.980469 15.804687-25.839844 33.363281-35.28125 52.230469-3.210938 11.089844-4.828125 22.582031-4.800782 34.128906 0 83.816406 82.546876 152 184 152zm0 0"/><path d="m250.542969 425.488281c4.027343 13.367188 12.417969 22.511719 21.464843 22.511719 12.992188 0 24-18.273438 24-39.921875-14.40625 7.597656-29.667968 13.441406-45.464843 17.410156zm0 0"/><path d="m400.007812 204c-.007812-11.210938-.847656-22.402344-2.511718-33.488281-15.175782 80.082031-97.941406 141.488281-197.488282 141.488281-99.542968 0-182.304687-61.40625-197.488281-141.488281-1.660156 11.085937-2.4999998 22.277343-2.5117185 33.488281-.6796875 74.910156 37.7148435 144.765625 101.3203125 184.34375 60.625 36.816406 136.703125 36.816406 197.328125 0 63.617188-39.570312 102.023438-109.425781 101.351562-184.34375zm0 0"/><path d="m104.007812 408.078125c0 21.648437 11.007813 39.921875 24 39.921875 9.050782 0 17.441407-9.144531 21.464844-22.511719-15.796875-3.964843-31.058594-9.8125-45.464844-17.410156zm0 0"/><path d="m200.007812 56c.007813-21.769531 9.878907-42.363281 26.847657-56h-53.695313c16.96875 13.636719 26.84375 34.230469 26.847656 56zm0 0"/><path d="m152.007812 56c0 13.253906-10.746093 24-24 24-13.253906 0-24-10.746094-24-24s10.746094-24 24-24c13.253907 0 24 10.746094 24 24zm0 0"/><path d="m128.007812 0c-30.925781 0-56 25.070312-56 56s25.074219 56 56 56c30.929688 0 56-25.070312 56-56-.035156-30.914062-25.085937-55.9648438-56-56zm0 96c-22.089843 0-40-17.910156-40-40s17.910157-40 40-40c22.09375 0 40 17.910156 40 40-.027343 22.082031-17.917968 39.972656-40 40zm0 0"/><path d="m63.722656 23.769531c4.613282-9.195312 11.136719-17.300781 19.132813-23.769531h-50.847657zm0 0"/><path d="m272.007812 0c-30.925781 0-56 25.070312-56 56s25.074219 56 56 56c30.929688 0 56-25.070312 56-56-.035156-30.914062-25.085937-55.9648438-56-56zm0 96c-22.089843 0-40-17.910156-40-40s17.910157-40 40-40c22.09375 0 40 17.910156 40 40-.027343 22.082031-17.917968 39.972656-40 40zm0 0"/><path d="m218.496094 104c-11.894532-13.15625-18.480469-30.261719-18.488282-48-.003906 17.738281-6.59375 34.84375-18.488281 48zm0 0"/></svg>