<svg id="Layer_3" enable-background="new 0 0 64 64" height="512" viewBox="0 0 64 64" width="512" xmlns="http://www.w3.org/2000/svg"><path d="m55.157 53.743c-.62-.621-1.357-1.081-2.157-1.374v-9.369h1c3.86 0 7-3.14 7-7v-4c0-1.654-1.346-3-3-3s-3 1.346-3 3v4c0 .551-.449 1-1 1h-1v-12c0-2.206-1.794-4-4-4s-4 1.794-4 4v8h-1c-.551 0-1-.449-1-1v-4c0-1.654-1.346-3-3-3s-3 1.346-3 3v4c0 3.86 3.14 7 7 7h1v11.24c-.639-.415-1.242-.895-1.793-1.447-2.446-2.446-5.698-3.793-9.157-3.793h-15.05v-8h1c3.86 0 7-3.14 7-7v-4c0-1.654-1.346-3-3-3s-3 1.346-3 3v4c0 .551-.449 1-1 1h-1v-8c0-2.206-1.794-4-4-4s-4 1.794-4 4v12h-1c-.551 0-1-.449-1-1v-4c0-1.654-1.346-3-3-3s-3 1.346-3 3v4c0 3.86 3.14 7 7 7h1v4.35c-2.331.541-4.473 1.71-6.207 3.443-2.446 2.446-3.793 5.698-3.793 9.157v4.05c0 .552.448 1 1 1h60c.404 0 .769-.244.924-.617.155-.374.069-.804-.217-1.09zm-1.157-14.743c1.654 0 3-1.346 3-3v-4c0-.551.449-1 1-1s1 .449 1 1v4c0 2.757-2.243 5-5 5h-1v-2zm-10-2c-2.757 0-5-2.243-5-5v-4c0-.551.449-1 1-1s1 .449 1 1v4c0 1.654 1.346 3 3 3h1v2zm3 8h2v-2h-2v-6h2v-2h-2v-6h2v-2h-2v-2c0-1.103.897-2 2-2s2 .897 2 2v6h-2v2h2v6h-2v2h2v6h-2v2h2v3.002c-.017 0-.033-.002-.05-.002-1.374 0-2.706-.26-3.95-.741zm-27-12c1.654 0 3-1.346 3-3v-4c0-.551.449-1 1-1s1 .449 1 1v4c0 2.757-2.243 5-5 5h-1v-2zm-10 6c-2.757 0-5-2.243-5-5v-4c0-.551.449-1 1-1s1 .449 1 1v4c0 1.654 1.346 3 3 3h1v2zm3 4h2v-2h-2v-6h2v-2h-2v-6h2v-2h-2v-2c0-1.103.897-2 2-2s2 .897 2 2v6h-2v2h2v6h-2v2h2v6h-3.05c-.319 0-.634.023-.95.046zm-10 18v-3.05c0-2.925 1.139-5.674 3.207-7.743 2.068-2.068 4.818-3.207 7.743-3.207h20.1c2.925 0 5.674 1.139 7.743 3.207 2.446 2.446 5.698 3.793 9.157 3.793 1.055 0 2.047.411 2.793 1.157l5.843 5.843z"/><path d="m7.793 51.793c-1.643 1.643-2.628 3.825-2.774 6.144l1.996.126c.116-1.833.894-3.558 2.192-4.856 1.423-1.423 3.316-2.207 5.329-2.207h2.464v-2h-2.464c-2.547 0-4.942.992-6.743 2.793z"/><path d="m49 19h10c2.206 0 4-1.794 4-4s-1.794-4-4-4c-.034 0-.067.008-.1.009-.462-2.284-2.483-4.009-4.9-4.009s-4.438 1.725-4.9 4.008c-.033 0-.066-.008-.1-.008-2.206 0-4 1.794-4 4s1.794 4 4 4zm0-6c.038 0 .076.007.114.01.108.523.289 1.029.557 1.493l1.73-1.003c-.262-.453-.401-.972-.401-1.5 0-1.654 1.346-3 3-3s3 1.346 3 3c0 .528-.139 1.047-.401 1.5l1.731 1.002c.268-.463.449-.97.556-1.492.038-.003.076-.01.114-.01 1.103 0 2 .897 2 2s-.897 2-2 2h-10c-1.103 0-2-.897-2-2s.897-2 2-2z"/><path d="m5 13h10c2.206 0 4-1.794 4-4s-1.794-4-4-4c-.034 0-.067.008-.1.009-.462-2.284-2.483-4.009-4.9-4.009s-4.438 1.725-4.9 4.008c-.033 0-.066-.008-.1-.008-2.206 0-4 1.794-4 4s1.794 4 4 4zm0-6c.038 0 .076.007.114.01.107.523.288 1.029.556 1.492l1.731-1.002c-.262-.453-.401-.972-.401-1.5 0-1.654 1.346-3 3-3s3 1.346 3 3c0 .528-.139 1.047-.401 1.5l1.731 1.002c.268-.463.449-.97.556-1.492.038-.003.076-.01.114-.01 1.103 0 2 .897 2 2s-.897 2-2 2h-10c-1.103 0-2-.897-2-2s.897-2 2-2z"/><path d="m32 16c2.757 0 5-2.243 5-5s-2.243-5-5-5-5 2.243-5 5 2.243 5 5 5zm0-8c1.654 0 3 1.346 3 3s-1.346 3-3 3-3-1.346-3-3 1.346-3 3-3z"/><path d="m31 2h2v2h-2z"/><path d="m31 18h2v2h-2z"/><path d="m39 10h2v2h-2z"/><path d="m23 10h2v2h-2z"/><path d="m24 4.586h2v2.828h-2z" transform="matrix(.707 -.707 .707 .707 3.08 19.435)"/><path d="m24.586 16h2.828v2h-2.828z" transform="matrix(.707 -.707 .707 .707 -4.406 23.364)"/><path d="m37 15.586h2v2.828h-2z" transform="matrix(.707 -.707 .707 .707 -.891 31.849)"/><path d="m36.586 4h2.828v2h-2.828z" transform="matrix(.707 -.707 .707 .707 7.594 28.335)"/></svg>