<svg id="Capa_1" enable-background="new 0 0 497.88 497.88" height="512" viewBox="0 0 497.88 497.88" width="512" xmlns="http://www.w3.org/2000/svg"><path d="m388.967 93.353c-25.784 0-46.676 20.892-46.676 46.676v77.794h-46.676v-171.147c0-25.784-20.892-46.676-46.677-46.676s-46.676 20.892-46.676 46.676v233.382h-46.676v-93.353c0-25.784-20.892-46.676-46.676-46.676s-46.676 20.892-46.676 46.676v140.029c0 25.784 20.892 46.676 46.676 46.676h93.353v124.47h93.353v-186.704h93.353c25.784 0 46.676-20.892 46.676-46.676v-124.47c-.002-25.785-20.894-46.677-46.678-46.677z"/></svg>