<?xml version="1.0" standalone="no"?>
<!DOCTYPE svg PUBLIC "-//W3C//DTD SVG 20010904//EN"
 "http://www.w3.org/TR/2001/REC-SVG-20010904/DTD/svg10.dtd">
<svg version="1.0" xmlns="http://www.w3.org/2000/svg"
 width="1000.000000pt" height="1000.000000pt" viewBox="0 0 1000.000000 1000.000000"
 preserveAspectRatio="xMidYMid meet">

<g transform="translate(0.000000,1000.000000) scale(0.100000,-0.100000)" stroke="none">
<path d="M4675 8110 c-721 -80 -1379 -394 -1885 -900 -507 -508 -830 -1188
-900 -1899 -13 -133 -13 -489 0 -622 59 -600 301 -1185 686 -1664 391 -485
969 -863 1580 -1035 450 -126 982 -146 1455 -54 486 94 965 319 1364 640 551
444 954 1115 1089 1813 40 207 56 378 56 611 0 514 -103 953 -327 1402 -147
293 -349 574 -583 808 -479 479 -1070 774 -1770 885 -122 20 -633 29 -765 15z"/>
</g>
</svg>
