<?xml version='1.0' encoding='iso-8859-1'?>
<svg version="1.1" xmlns="http://www.w3.org/2000/svg" viewBox="0 0 470 470" xmlns:xlink="http://www.w3.org/1999/xlink" enable-background="new 0 0 470 470">
  <g>
    <path d="m403.781,317.805c0-23.981-16.717-44.13-39.108-49.402 2.205-5.752 3.346-11.885 3.346-18.156 0-27.981-22.765-50.746-50.745-50.746h-54.774v-68.191c0-9.649-7.851-17.5-17.5-17.5h-2.5v-22.5c0-4.142-3.357-7.5-7.5-7.5s-7.5,3.358-7.5,7.5v22.5h-2.5c-9.649,0-17.5,7.851-17.5,17.5v68.19h-54.764c-27.981,0-50.746,22.765-50.746,50.746 0,6.271 1.141,12.405 3.347,18.156-22.396,5.272-39.118,25.422-39.118,49.403 0,14.68 10.472,26.958 24.338,29.761l28.743,116.727c0.825,3.351 3.831,5.707 7.282,5.707h216.836c3.451,0 6.457-2.355 7.282-5.707l28.743-116.728c13.866-2.803 24.338-15.081 24.338-29.76zm-181.281-186.496c0-1.355 1.145-2.5 2.5-2.5h20c1.355,0 2.5,1.145 2.5,2.5v68.191h-25v-68.191zm115.041,323.691h-205.082l-26.306-106.832h39.323l12.622,85.429c0.551,3.726 3.753,6.405 7.41,6.405 0.365,0 0.734-0.027 1.106-0.082 4.098-0.605 6.928-4.418 6.323-8.516l-12.298-83.236h39.537l4.171,84.702c0.198,4.011 3.512,7.131 7.485,7.131 0.124,0 0.249-0.003 0.375-0.009 4.137-0.204 7.325-3.723 7.122-7.86l-4.135-83.963h39.61l-4.135,83.963c-0.203,4.137 2.985,7.656 7.122,7.86 0.126,0.006 0.251,0.009 0.375,0.009 3.973,0 7.287-3.12 7.485-7.131l4.171-84.702h39.537l-12.297,83.236c-0.604,4.098 2.227,7.91 6.324,8.516 0.371,0.055 0.74,0.082 1.105,0.082 3.656,0 6.859-2.679 7.41-6.405l12.621-85.429h39.323l-26.304,106.832zm35.877-121.832h-276.836c-8.472,0-15.363-6.892-15.363-15.363 0-19.711 16.038-35.748 35.751-35.748 2.779,0 5.331-1.537 6.63-3.994 1.3-2.457 1.134-5.431-0.431-7.728-4.042-5.935-6.179-12.882-6.179-20.089 0-19.71 16.036-35.746 35.746-35.746h164.537c19.71,0 35.745,16.036 35.745,35.746 0,5.921-1.465,11.657-4.221,16.811h-201.827c-4.143,0-7.5,3.358-7.5,7.5s3.357,7.5 7.5,7.5h206.07c19.708,0 35.741,16.037 35.741,35.748 5.68434e-14,8.471-6.891,15.363-15.363,15.363z"/>
    <path d="m205.003,95.547c1.777,0 3.562-0.628 4.992-1.905 3.09-2.759 3.358-7.5 0.6-10.59-5.353-5.995-8.3-13.71-8.3-21.726 0-17.564 13.299-35.9 32.705-45.552 19.407,9.651 32.706,27.987 32.706,45.552 0,8.016-2.948,15.731-8.301,21.726-2.759,3.089-2.49,7.831 0.6,10.589 3.091,2.76 7.832,2.49 10.59-0.599 7.81-8.747 12.111-20.011 12.111-31.716 0-24.235-18.383-49.195-44.702-60.699-1.916-0.837-4.092-0.836-6.008,0-26.319,11.503-44.701,36.463-44.701,60.698 0,11.706 4.301,22.969 12.11,31.716 1.482,1.661 3.535,2.507 5.598,2.506z"/>
  </g>
</svg>
