<svg id="Capa_1" enable-background="new 0 0 512 512" height="512" viewBox="0 0 512 512" width="512" xmlns="http://www.w3.org/2000/svg"><path d="m187.441 185.202c10.579 0 19.805 5.894 24.572 14.57 4.822-5.647 7.743-12.963 7.743-20.954 0-17.819-14.497-32.316-32.316-32.316s-32.316 14.497-32.316 32.316c0 7.99 2.921 15.307 7.743 20.954 4.769-8.676 13.995-14.57 24.574-14.57z"/><path d="m324.559 185.202c10.579 0 19.805 5.894 24.573 14.57 4.822-5.647 7.743-12.963 7.743-20.954 0-17.819-14.497-32.316-32.316-32.316s-32.316 14.497-32.316 32.316c0 7.99 2.921 15.307 7.743 20.954 4.768-8.676 13.994-14.57 24.573-14.57z"/><path d="m256 0c-107.265 0-194.532 87.267-194.532 194.532v317.468h15.053c19.542 0 29.946-6.984 38.306-12.596 6.715-4.508 11.152-7.486 21.526-7.486 10.375 0 14.811 2.978 21.527 7.487 8.36 5.612 18.764 12.596 38.306 12.596 19.541 0 29.944-6.985 38.303-12.597 6.714-4.508 11.149-7.486 21.521-7.486s14.807 2.978 21.522 7.486c8.36 5.612 18.763 12.596 38.304 12.596 19.54 0 29.943-6.984 38.302-12.597 6.714-4.508 11.149-7.486 21.521-7.486 10.371 0 14.806 2.978 21.52 7.486 8.359 5.612 18.762 12.597 38.302 12.597h15.053v-317.468c-.002-107.265-87.269-194.532-194.534-194.532zm68.559 116.396c34.42 0 62.423 28.003 62.423 62.423 0 33.937-27.227 61.615-60.982 62.386-.477.024-.957.036-1.44.036s-.963-.012-1.44-.036c-33.755-.771-60.983-28.449-60.983-62.386-.001-34.421 28.002-62.423 62.422-62.423zm-137.118 0c34.42 0 62.423 28.003 62.423 62.423 0 33.937-27.227 61.615-60.983 62.386-.477.024-.957.036-1.44.036s-.963-.012-1.44-.036c-33.755-.771-60.983-28.449-60.983-62.386 0-34.421 28.003-62.423 62.423-62.423zm149.973 224.785-40.712-32.114-40.708 32.114-40.709-32.114-40.706 32.114-50.03-39.47 18.648-23.637 31.382 24.758 40.706-32.114 40.709 32.115 40.706-32.114 40.714 32.115 31.39-24.76 18.646 23.639z"/></svg>