<svg id="Layer_1" height="512" viewBox="0 0 128 128" width="512" xmlns="http://www.w3.org/2000/svg" data-name="Layer 1"><path d="m102.625 85.114v-3.7a1.749 1.749 0 0 0 -.521-1.245 1.8 1.8 0 0 0 -1.252-.5l-17.87.234a1.75 1.75 0 0 0 -1.727 1.75v2.247l-3.874-.159a2.066 2.066 0 0 1 -1.881-1.573l-.658-2.727a28.1 28.1 0 0 0 16.57-20.09 6.658 6.658 0 0 0 .588-12.985v-3.859c3.643-.634 5.49-2.873 5.49-6.68 0-5.434-3.729-11.567-9.975-16.407a38.39 38.39 0 0 0 -47.03 0c-6.246 4.84-9.975 10.974-9.975 16.407 0 3.806 1.845 6.048 5.49 6.682v3.856a6.658 6.658 0 0 0 .591 12.984 28.1 28.1 0 0 0 16.57 20.09l-.661 2.729a2.06 2.06 0 0 1 -1.861 1.567l-3.9.16v-2.478a1.749 1.749 0 0 0 -.521-1.245 1.839 1.839 0 0 0 -1.252-.5l-17.866.228a1.75 1.75 0 0 0 -1.727 1.75v3.463c-8.294 1.942-13.291 9.239-14.022 20.423v.043c-.06.932-.1 1.884-.1 2.869v6.422a1.75 1.75 0 0 0 3.5 0v-1.12h8.083a1.75 1.75 0 0 0 1.75-1.75v-6.42a1.75 1.75 0 0 0 -1.75-1.75h-7.816c.719-6 3.159-12.994 10.357-15.111v.156a1.75 1.75 0 0 0 1.75 1.75h16.12v4.125a1.75 1.75 0 0 0 2.171 1.7l2.732-.677-.823 2.722a1.752 1.752 0 0 0 .4 1.709l15 15.875a1.931 1.931 0 0 0 2.544 0l15-15.875a1.752 1.752 0 0 0 .4-1.709l-.823-2.722 2.732.677a1.75 1.75 0 0 0 2.171-1.7v-4.125h16.12a1.75 1.75 0 0 0 1.75-1.75v-.156c9.187 2.7 10.625 13.349 10.625 19.734v6.422a1.75 1.75 0 0 0 3.5 0v-6.422c.006-12.833-5.122-21.233-14.119-23.339zm-81.542 22.216v2.92h-6.333v-1.8c0-.361.006-.737.016-1.123zm44.6-10.219a1.744 1.744 0 0 0 -.358.781l-1.325 7.266-1.33-7.265a1.744 1.744 0 0 0 -.358-.781l-1.818-2.26 3.506-3.652 3.506 3.656zm-9.778-14.123.211-.873 5.526 6.485-3.36 3.5-4.688-5.828a5.552 5.552 0 0 0 2.311-3.284zm8.095 2.981-3.945-4.628a27.613 27.613 0 0 0 7.889 0zm5.718 6.131-3.36-3.5 5.526-6.483.211.873a5.54 5.54 0 0 0 2.313 3.283zm-9.084-65.315h6.731c-.188 1.794-.889 4.539-3.366 5.529-2.477-.99-3.177-3.737-3.365-5.529zm27.866 9.125v5.7h-49v-5.7zm-3.131 9.2c-3.889 1.347-11.235 2.682-21.369 2.682s-17.483-1.335-21.372-2.686zm8.048 7.685a3.16 3.16 0 0 1 -1.483 2.672c.04-.608.067-1.22.067-1.838v-3.473a3.163 3.163 0 0 1 1.416 2.635zm-59.407-16.968c0-11.955 18.19-20.952 29.99-20.952 17.112 0 29.99 12.71 29.99 20.952 0 1.637-.355 2.663-1.99 3.111v-4.778a1.75 1.75 0 0 0 -1.75-1.75h-21.137a13.753 13.753 0 0 0 1.8-7.491 1.75 1.75 0 0 0 -1.746-1.634h-10.334a1.75 1.75 0 0 0 -1.746 1.634 13.753 13.753 0 0 0 1.8 7.491h-21.137a1.75 1.75 0 0 0 -1.75 1.75v4.778c-1.634-.448-1.99-1.475-1.99-3.111zm.573 16.964a3.163 3.163 0 0 1 1.417-2.635v3.469c0 .618.027 1.23.067 1.838a3.16 3.16 0 0 1 -1.484-2.672zm4.917.834v-6.074c5.664 2.863 16.968 3.741 24.5 3.741s18.836-.878 24.5-3.741v6.074a24.5 24.5 0 0 1 -49 0zm-10.625 29.754 14.37-.188v3.935h-14.37zm22.094 15.156 1.42-4.7a1.75 1.75 0 0 0 -2.1-2.205l-3.547.879v-5.109l3.157-.13 6.9 8.579 2.5 3.11 1.908 10.42zm30.286-6.021-3.547-.879a1.75 1.75 0 0 0 -2.1 2.205l1.42 4.7-10.243 10.839 1.908-10.42 2.5-3.11 6.9-8.579 3.157.13zm17.87-5.389h-14.37v-3.746l14.37-.188z"/><path d="m30.792 102.672a1.75 1.75 0 0 0 -1.75 1.75v10.453a1.75 1.75 0 0 0 3.5 0v-10.453a1.75 1.75 0 0 0 -1.75-1.75z"/><path d="m97.208 102.672a1.75 1.75 0 0 0 -1.75 1.75v10.453a1.75 1.75 0 0 0 3.5 0v-10.453a1.75 1.75 0 0 0 -1.75-1.75z"/><path d="m55.122 53.208a2.583 2.583 0 1 0 2.583 2.583 2.587 2.587 0 0 0 -2.583-2.583z"/><path d="m72.878 58.375a2.583 2.583 0 1 0 -2.583-2.584 2.587 2.587 0 0 0 2.583 2.584z"/><path d="m61.33 65.142 1.67 1.167a1.75 1.75 0 0 0 2-2.868l-.671-.47 1.361-5.241a1.75 1.75 0 0 0 -3.388-.879l-1.662 6.418a1.75 1.75 0 0 0 .69 1.873z"/><path d="m69.737 72.607a1.75 1.75 0 1 0 -1.057-3.336 18.613 18.613 0 0 1 -9.4-.013 1.75 1.75 0 0 0 -.979 3.36 23.267 23.267 0 0 0 5.979.773 18.151 18.151 0 0 0 5.457-.784z"/></svg>